<?xml version="1.0" encoding="utf-8" ?>
<svg xmlns="http://www.w3.org/2000/svg" xmlns:xlink="http://www.w3.org/1999/xlink" width="844" height="422">
	<path fill="#E3EDF8" transform="scale(0.41245 0.41245)" d="M-0 -0L2048 0L2048 1024L-0 1024L0 -0Z"/>
	<path fill="#FEFEFE" transform="scale(0.41245 0.41245)" d="M1009 149.921L1009.37 102.905L1021.22 102.918C1021.18 110.841 1022.49 154.729 1019.62 158.423C1016.47 154.378 1013.4 152.345 1009 149.921Z"/>
	<path fill="#032261" transform="scale(0.41245 0.41245)" d="M1005.01 149.99L1005.17 149.478C1008.15 139.271 1002.94 87.4159 1007 83.2471L1008.33 84.5C1008.31 93.6015 1006.63 145.143 1009 149.921C1013.4 152.345 1016.47 154.378 1019.62 158.423L1019.21 159.872L1019.08 174.361L993 174.291C992.111 173.141 991.619 172.377 991.181 170.958C991.02 166.882 990.326 161.112 992.412 157.484C995.403 152.281 999.669 151.33 1005.01 149.99Z"/>
	<path fill="#EEA439" transform="scale(0.41245 0.41245)" d="M1284.8 244.105L1334 243.845C1333.61 246.33 1333.17 248.942 1332.01 251.196C1329.04 256.97 1323.68 261.578 1317.52 263.547C1311.11 265.596 1303.52 264.793 1297.64 261.569C1290.1 257.432 1287.18 252.102 1284.8 244.105Z"/>
	<path fill="#F6B947" transform="scale(0.41245 0.41245)" d="M619.427 242.559L663.801 242.392C663.194 248.01 662.023 253.41 658.413 257.937C655.324 261.81 649.793 264.706 644.879 265.238C638.472 265.932 631.889 264.636 626.859 260.43C621.384 255.852 620.044 249.319 619.427 242.559Z"/>
	<path fill="#032261" transform="scale(0.41245 0.41245)" d="M1293.02 172.086L1294.8 170.47C1294.78 166.054 1293.66 156.033 1296.5 152.75C1300.16 151.151 1305.11 151.803 1309.06 151.862L1309.02 87.5L1310.5 86.0432C1312.85 90.0566 1311.6 98.1074 1311.58 103.014L1311.37 151.767C1315.9 151.905 1320.29 151.09 1323.86 154C1326.05 158.921 1325.11 166.503 1325.13 171.894C1321.21 175.435 1299.17 173.568 1293 173.557L1293.02 172.086Z"/>
	<path fill="#032261" transform="scale(0.41245 0.41245)" d="M624.009 172.746C623.779 167.893 623.536 163.239 625.897 158.828C628.857 153.301 634.246 151.317 639.951 149.708L640.071 87L641.5 85.9114C641.931 86.4409 642.504 86.8813 642.792 87.5C643.618 89.2737 642.79 97.6259 642.792 99.9693L642.954 149.117L650.315 153.059C654.74 155.603 656.741 159.119 658.074 163.906C658.066 166.781 658.757 171.115 657 173.319C647.345 173.38 633.039 175.082 624.009 172.746Z"/>
	<path fill="#4169C0" transform="scale(0.41245 0.41245)" d="M188.498 788.157C186.813 791.83 188.086 796.042 189.366 799.683C191.487 805.718 194.956 811.699 199.464 816.243L151.504 816.601L150.836 820.088L149 817.058C146.991 817.106 144.502 817.375 142.574 816.799C140.859 816.286 140.425 815.466 139.711 813.855C138.016 810.025 138.526 793.308 140.251 789.5C144.196 786.962 150.935 788.072 155.656 788.083L188.498 788.157Z"/>
	<path fill="#FEFEFE" transform="scale(0.41245 0.41245)" d="M1126.41 500.595L1155.03 501.074L1155.92 559.685C1156.17 564.33 1155.69 569.686 1156.86 574.185L1156.89 575.069L1144.01 574.502C1141.43 570.817 1140.63 562.099 1139.59 557.608L1126.41 500.595Z"/>
	<path fill="#FEFEFE" transform="scale(0.41245 0.41245)" d="M1163.16 565.918C1161.81 559.651 1162.71 552.015 1162.71 545.527L1162.75 500.848L1209.77 501.09C1208.86 502.371 1205.8 505.876 1205.49 507.234L1163.16 565.918Z"/>
	<path fill="#57C2BF" transform="scale(0.41245 0.41245)" d="M1939.39 733.596L1953.46 732.354L1936.4 760.064C1931.71 767.66 1926.86 776.952 1918.5 780.917C1910.76 784.585 1903.36 782.861 1895.77 780.152L1894.5 779.312C1893.19 780.365 1892.24 781.247 1890.51 781.5L1892.91 778.5C1890.52 774.832 1887.92 770.829 1887.35 766.418C1886.61 760.777 1888.16 753.272 1891.75 748.827C1902.58 735.398 1923.69 735.042 1939.39 733.596Z"/>
	<path fill="#5F95DC" transform="scale(0.41245 0.41245)" d="M163.853 709.602L164.384 710.149C178.478 724.959 184.922 752.243 188.378 771.864C189.126 776.11 188.529 784.405 191 787.787L193.161 787.5C194.473 781.348 193.219 773.136 193.073 766.789L192.653 728.523L195.679 731.831C194.613 741.325 195.196 751.35 195.177 760.908C195.157 770.925 194.486 781.446 196 791.36C203.226 772.303 204.935 747.626 218.686 731.648L219.172 731.096L220.002 731.629C209.654 749.391 204.347 767.54 199.437 787.426C201.459 788.696 207.126 788.015 209.646 788.023L244.362 788.131C247.277 788.14 252.833 787.389 255.5 788.165C256.74 788.526 258.247 790.378 258.55 791.565C260.072 797.511 258.656 807.238 258.562 813.573C256.302 815.869 255.402 816.614 252 816.721L247.633 816.44C232.208 814.3 215.202 817.347 199.464 816.243C194.956 811.699 191.487 805.718 189.366 799.683C188.086 796.042 186.813 791.83 188.498 788.157C185.667 760.23 179.444 734.521 163.586 710.974L163.853 709.602Z"/>
	<path fill="#57C2BF" transform="scale(0.41245 0.41245)" d="M1886.96 683.161L1886.49 680.862C1884.55 669.255 1890.15 656.713 1896.72 647.471C1900.27 642.493 1904.68 638.436 1909.88 635.226C1916.73 630.992 1924.75 628.44 1932.1 625.152L1960.87 612.629C1965.09 610.858 1970 608.095 1974.5 607.336L1973.97 609.88C1968.76 612.622 1964.05 619.296 1960.09 623.634C1946.37 638.654 1933.53 655.446 1919.03 669.571L1918.37 670.098C1917.35 670.952 1916.94 672.057 1916.39 673.22C1915.76 674.537 1915.07 676.197 1913.76 676.876C1911.91 677.838 1910.64 679.543 1908.77 680.55C1903.5 683.385 1894.09 686.294 1890.75 691.203L1890.15 691.923C1888.49 689.216 1887.8 686.194 1886.96 683.161Z"/>
	<path fill="#20A6A8" transform="scale(0.41245 0.41245)" d="M1886.96 683.161L1887.49 674.291C1888.4 674.47 1891.51 675.775 1892 675.686C1896.62 674.857 1901.52 668.61 1907.13 667.342C1911.65 666.321 1915.08 667.166 1919.03 669.571L1918.37 670.098C1917.35 670.952 1916.94 672.057 1916.39 673.22C1915.76 674.537 1915.07 676.197 1913.76 676.876C1911.91 677.838 1910.64 679.543 1908.77 680.55C1903.5 683.385 1894.09 686.294 1890.75 691.203L1890.15 691.923C1888.49 689.216 1887.8 686.194 1886.96 683.161Z"/>
	<path fill="#F18549" transform="scale(0.41245 0.41245)" d="M1869.36 643.827L1870.1 644.081L1870.84 741.195C1876.13 724.412 1882.61 710.496 1893.69 696.658L1894.66 697.588C1886.5 707.903 1878.69 720.747 1874.75 733.344C1867.43 756.769 1869.7 782.292 1870.12 806.5L1871.5 807.925L1874.74 807.5L1874.95 806.974L1881.5 793.51L1882.04 795L1876.07 807.924L1919.22 807.934C1919.17 812.411 1920.3 823.683 1918 826.984L1911.46 827.325L1862.09 827.777L1820.28 827.709C1817.42 827.652 1815.62 827.966 1813.12 826.5L1812.94 807.761L1859.05 807.875C1857.38 792.839 1854.76 779.947 1847.51 766.5L1848.5 765.547C1853.19 774.225 1856.63 783.326 1858.72 793C1859.67 797.417 1858.85 804.082 1861.26 807.661C1863.97 807.809 1865.36 808.411 1867.59 806.702C1867.69 787.703 1869.3 767.119 1865.86 748.413C1864.61 741.666 1862.84 735.107 1860.53 728.646C1858.77 723.714 1854.05 716.522 1854.52 711.367L1854.59 710.85C1860.37 724.62 1865.26 737.463 1868.5 752.098C1869.72 722.552 1866.48 693.159 1867.79 663.5C1868.09 656.734 1867.74 650.481 1869.36 643.827Z"/>
	<path fill="#078695" transform="scale(0.41245 0.41245)" d="M1919.03 669.571C1933.53 655.446 1946.37 638.654 1960.09 623.634C1964.05 619.296 1968.76 612.622 1973.97 609.88L1963.8 654.719C1961.75 663.337 1960.11 673.449 1956.22 681.447C1953.37 687.322 1948.89 692.366 1943.48 696.015C1933.86 702.514 1919.21 705.58 1907.74 703.122C1903.2 702.15 1898.58 700.077 1894.66 697.588L1893.69 696.658L1890.15 691.923L1890.75 691.203C1894.09 686.294 1903.5 683.385 1908.77 680.55C1910.64 679.543 1911.91 677.838 1913.76 676.876C1915.07 676.197 1915.76 674.537 1916.39 673.22C1916.94 672.057 1917.35 670.952 1918.37 670.098L1919.03 669.571Z"/>
	<path fill="#078695" transform="scale(0.41245 0.41245)" d="M163.586 710.974L161.707 709.379L154 714.237C144.435 719.429 131.495 718.08 121.438 715.174C107.612 711.178 92.8668 701.249 85.9285 688.384C82.5423 682.105 80.1385 674.067 82.4109 667.022C84.0611 661.907 86.9823 658.851 91.764 656.436C98.7326 652.918 108.178 653.759 115.403 656.081C133.295 661.834 153.452 678.788 161.796 695.719C163.607 699.393 164.538 702.324 163.11 706.283C162.683 707.467 163.405 708.449 163.853 709.602L163.586 710.974Z"/>
	<path fill="#4169C0" transform="scale(0.41245 0.41245)" d="M1862.09 827.777L1911.46 827.325L1900.42 896.253C1900 899.555 1899.98 906.843 1898.11 909.388L1842.98 909.247C1841.87 909.244 1841.7 909.494 1840.84 908.648C1839.29 907.144 1838.69 902.452 1838.19 900.272L1837.77 897.138L1820.28 827.709L1862.09 827.777Z"/>
	<path fill="#4977C7" transform="scale(0.41245 0.41245)" d="M1820.28 827.709L1862.09 827.777C1871.07 839.144 1881.98 853.087 1880.29 868.35C1879.45 875.899 1872.67 881.577 1866.99 885.978C1858.9 892.241 1848.11 897.769 1838.19 900.272L1837.77 897.138L1820.28 827.709Z"/>
	<path fill="#79ACE6" transform="scale(0.41245 0.41245)" d="M1642.23 112.296C1653.53 112.556 1663.17 115.037 1672.17 122.121C1681.19 129.227 1688.56 139.954 1689.86 151.544C1691.26 164.039 1688.04 175.74 1680.17 185.646C1671.49 196.57 1659.69 201.147 1646.25 202.716C1635.72 202.867 1625.84 200.539 1617.12 194.423C1607.69 187.81 1600.66 176.959 1598.75 165.557C1596.65 152.98 1599.41 141.074 1607 130.735C1615.75 118.805 1628.19 114.387 1642.23 112.296Z"/>
	<path fill="#FEFEFE" transform="scale(0.41245 0.41245)" d="M1640.98 123.251C1648.43 122.634 1656.94 124.688 1663.3 128.556C1670.45 132.899 1676.77 141.327 1678.68 149.49C1680.74 158.285 1679.52 167.309 1674.61 174.974C1668.07 185.2 1659.76 189.409 1648.24 191.828C1640.27 192.306 1632.35 191.183 1625.46 186.912C1617.42 181.93 1611.59 172.765 1609.51 163.62C1607.79 156.043 1609.49 146.24 1613.74 139.775C1620.24 129.889 1629.75 125.477 1640.98 123.251Z"/>
	<path fill="#032261" transform="scale(0.41245 0.41245)" d="M770.421 343.674L771.727 343.058L772.472 342.75C781.289 339.053 793.337 340.631 802.852 340.823L807.92 334.92C810.294 332.72 813.046 333.266 816 333.286C820.001 335.172 821.618 337.415 823.932 341.115L824.316 348.66C823.257 356.465 822.157 358.491 816.506 363.994L816.084 364.397L817.534 393.721C819.152 403.853 824.18 418.725 817.641 427.664C814.767 431.593 811.126 433.828 806.491 435.096L806.981 436.619C805.139 437.367 803.478 441.02 802.102 442.628C799.475 445.698 796.371 448.199 792.691 449.9C784.849 453.523 775.064 453.496 767.044 450.335C758.777 447.079 754.202 440.928 750.838 433.032L755.631 422.864C757.952 418 760.604 413.109 761.686 407.796C760.641 403.366 760.985 398.53 759.755 394.243C757.409 386.07 752.488 378.284 751.236 369.78C750.432 364.323 752.992 357.764 758 355.07C759.443 354.294 761.94 354.025 763.128 353.195C765.464 351.564 768.545 346.122 770.421 343.674Z"/>
	<path fill="#EFC1A2" transform="scale(0.41245 0.41245)" d="M816.084 364.397L817.534 393.721C815.975 396.508 814.24 398.435 811.303 399.81C807.384 401.645 790.895 402.065 786.913 400.273C783.205 398.604 780.808 395.381 779.438 391.629C777.783 387.096 776.118 375.915 778.086 371.5C778.982 369.49 780.677 367.588 782.743 366.771C784.995 365.879 789.201 366.379 791.655 366.401C798.769 366.467 808.695 367.334 815.271 364.736L816.084 364.397Z"/>
	<path fill="#EFC1A2" transform="scale(0.41245 0.41245)" d="M761.686 407.796L767.305 401.104C767.024 399.978 767.258 400.064 766.219 399.358C763.446 397.474 760.951 395.67 760.332 392.125C759.917 389.747 760.52 387.32 761.023 385C763.516 382.396 764.116 382.302 767.5 381.693C770.072 382.643 771.48 383.453 772.76 386C774.499 389.458 774.449 394.44 774.912 398.275C776.307 409.832 778.854 428.882 791.063 433.65C795.844 435.517 801.455 435.197 806.491 435.096L806.981 436.619C805.139 437.367 803.478 441.02 802.102 442.628C799.475 445.698 796.371 448.199 792.691 449.9C784.849 453.523 775.064 453.496 767.044 450.335C758.777 447.079 754.202 440.928 750.838 433.032L755.631 422.864C757.952 418 760.604 413.109 761.686 407.796Z"/>
	<path fill="#FEFEFE" transform="scale(0.41245 0.41245)" d="M988.915 174.899C976.565 173.682 964.018 174.037 951.607 174.023L896.818 174.006L896.892 103.18L1004.61 102.878L1005.01 149.99C999.669 151.33 995.403 152.281 992.412 157.484C990.326 161.112 991.02 166.882 991.181 170.958C990.572 172.974 990.617 173.567 988.915 174.899Z"/>
	<path fill="#5F95DC" transform="scale(0.41245 0.41245)" d="M1280.69 183.217C1283.92 179.722 1288.38 173.353 1293.02 172.086L1293 173.557C1299.17 173.568 1321.21 175.435 1325.13 171.894L1328.32 172.679L1328.58 173.129C1335.48 184.531 1347.45 194.441 1356.93 203.787L1398.16 243.937L1334 243.845L1284.8 244.105L1284.15 244.035L1221.9 243.901C1223.34 239.797 1232.25 232.576 1235.48 229.252L1280.69 183.217Z"/>
	<path fill="#4977C7" transform="scale(0.41245 0.41245)" d="M658.074 163.906C658.668 167.128 659.168 170.221 659.279 173.5L732.594 242.448L663.801 242.392L619.427 242.559L548.261 242.385L624.009 172.746C633.039 175.082 647.345 173.38 657 173.319C658.757 171.115 658.066 166.781 658.074 163.906Z"/>
	<path fill="#4169C0" transform="scale(0.41245 0.41245)" d="M199.464 816.243C215.202 817.347 232.208 814.3 247.633 816.44L246.154 822.011L236.499 896.24L234.976 909.494L165.907 909.074L163.582 895.27L161.306 881.169L150.836 820.088L151.504 816.601L199.464 816.243Z"/>
	<path fill="#3253AB" transform="scale(0.41245 0.41245)" d="M199.464 816.243C215.202 817.347 232.208 814.3 247.633 816.44L246.154 822.011C236.041 821.033 225.803 821.494 215.659 821.69C203.382 821.927 187.256 820.457 177.15 828.5C166.595 836.9 164.92 849.333 163.703 861.992C163.28 866.394 163.748 877.957 161.306 881.169L150.836 820.088L151.504 816.601L199.464 816.243Z"/>
	<path fill="#FEFEFE" transform="scale(0.41245 0.41245)" d="M824.316 348.66C831.453 347.527 839.316 348.232 846.543 348.301L888.831 348.594L888.995 493.124L868.849 493.241C863.604 480.481 858.887 467.062 849.344 456.81C838.036 444.932 822.17 441.19 806.981 436.619L806.491 435.096C811.126 433.828 814.767 431.593 817.641 427.664C824.18 418.725 819.152 403.853 817.534 393.721L816.084 364.397L816.506 363.994C822.157 358.491 823.257 356.465 824.316 348.66Z"/>
	<path fill="#FEFEFE" transform="scale(0.41245 0.41245)" d="M769.054 102.86L888.856 103.147L888.883 174.044L769.61 173.887L769.054 102.86Z"/>
	<path fill="#FEFEFE" transform="scale(0.41245 0.41245)" d="M1162.9 103.115L1283.32 103.123L1284.21 174.293L1163.18 174.082L1162.9 103.115Z"/>
	<path fill="#FEFEFE" transform="scale(0.41245 0.41245)" d="M1029.5 103.032L1154.19 102.969L1154.5 174.057L1029.15 174.259L1029.5 103.032Z"/>
	<path fill="#E3EDF8" transform="scale(0.41245 0.41245)" d="M242.298 572.101L255.27 634.841C258.232 649.85 262.55 666.206 263.644 681.431L268.592 707.719C261.519 718.174 250.421 729.987 237.406 732.654C231.498 733.864 226.663 733.679 221.111 731.293L220.002 731.629L219.172 731.096L218.686 731.648C204.935 747.626 203.226 772.303 196 791.36C194.486 781.446 195.157 770.925 195.177 760.908C195.196 751.35 194.613 741.325 195.679 731.831L192.653 728.523C190.73 699.848 188.013 672.695 176.96 645.817L177.999 645.821L178.254 643.68C184.265 639.014 186.27 634.953 188.449 627.878L212.5 630.947C213.262 630.01 213.647 629.462 214.675 628.812C214.978 616.785 218.066 603.536 223.506 592.78C227.612 584.66 233.263 575.071 242.298 572.101Z"/>
	<path fill="#20A6A8" transform="scale(0.41245 0.41245)" d="M219.172 731.096C220.835 727.93 219.865 723.986 220.222 720.5C220.766 715.205 224.251 709.116 227.205 704.807C235.542 692.647 249.245 684.208 263.644 681.431L268.592 707.719C261.519 718.174 250.421 729.987 237.406 732.654C231.498 733.864 226.663 733.679 221.111 731.293L220.002 731.629L219.172 731.096Z"/>
	<path fill="#57C2BF" transform="scale(0.41245 0.41245)" d="M242.298 572.101L255.27 634.841C248.192 642.267 237.265 653.714 226.215 654.014C223.894 654.077 221.432 653.737 219.155 653.293C203.091 674.285 197.026 706.055 195.679 731.831L192.653 728.523C190.73 699.848 188.013 672.695 176.96 645.817L177.999 645.821L178.254 643.68C184.265 639.014 186.27 634.953 188.449 627.878L212.5 630.947C213.262 630.01 213.647 629.462 214.675 628.812C214.978 616.785 218.066 603.536 223.506 592.78C227.612 584.66 233.263 575.071 242.298 572.101Z"/>
	<path fill="#E3EDF8" transform="scale(0.41245 0.41245)" d="M177.999 645.821L178.254 643.68C184.265 639.014 186.27 634.953 188.449 627.878L212.5 630.947C213.262 630.01 213.647 629.462 214.675 628.812C214.137 636.959 214.972 644.729 217.232 652.594C210.77 664.241 204.691 675.893 200.766 688.678C197.833 698.229 196.356 708.297 194.609 718.115C193.146 710.565 192.816 703.086 191.672 695.515C189.853 683.488 187.19 671.678 183.675 660.037C182.357 655.675 180.847 649.367 177.999 645.821Z"/>
	<path fill="#E3EDF8" transform="scale(0.41245 0.41245)" d="M1819.95 690.816C1825.77 693.279 1832.23 695.538 1838.66 694.366C1839.5 694.213 1842.93 692.981 1843.5 693.121C1844.17 693.284 1845.47 694.404 1846.1 694.818C1849.55 699.157 1852.93 705.572 1854.59 710.85L1854.52 711.367C1854.05 716.522 1858.77 723.714 1860.53 728.646C1862.84 735.107 1864.61 741.666 1865.86 748.413C1869.3 767.119 1867.69 787.703 1867.59 806.702C1865.36 808.411 1863.97 807.809 1861.26 807.661C1858.85 804.082 1859.67 797.417 1858.72 793C1856.63 783.326 1853.19 774.225 1848.5 765.547L1847.51 766.5C1854.76 779.947 1857.38 792.839 1859.05 807.875L1812.94 807.761L1813.12 826.5C1815.62 827.966 1817.42 827.652 1820.28 827.709L1837.77 897.138C1829.3 897.219 1802.49 899.4 1796.65 895.984L1796.05 893.858L1793.07 893.086C1792.99 885.46 1791.84 875.898 1794.05 868.616L1795.67 867.865C1795.93 860.666 1794.82 853.22 1794.17 846.043L1791.14 811.882L1781.82 708.282C1784.04 707.548 1785.77 707.024 1787.43 705.267C1786.74 702.609 1785.36 699.961 1786.5 697.421L1796.03 702.337C1803.06 699.024 1814.26 695.856 1819.95 690.816Z"/>
	<path fill="#078695" transform="scale(0.41245 0.41245)" d="M1787.43 705.267C1786.74 702.609 1785.36 699.961 1786.5 697.421L1796.03 702.337L1808.61 708.497C1820.14 714.163 1839.03 721.007 1843.41 734.294C1844.93 738.898 1844.44 747.339 1841.94 751.5C1840.25 754.332 1838.57 754.938 1835.47 755.541C1826.9 757.209 1815.86 756.222 1808.58 751.239C1797.52 743.678 1788.83 705.835 1787.43 705.267Z"/>
	<path fill="#FEFEFE" transform="scale(0.41245 0.41245)" d="M1034.58 469.912L1028.84 468.5C1027.12 458.96 1028.83 446.525 1028.84 436.675L1028.72 348.827L1154.86 348.889L1154.34 493.314L1125.27 494.098C1123.8 488.287 1122.9 476.357 1118.6 472.243C1117.41 471.101 1115.84 470.216 1114.18 470.035C1106.04 469.145 1096.88 469.908 1088.63 469.895L1034.58 469.912Z"/>
	<path fill="#FEFEFE" transform="scale(0.41245 0.41245)" d="M962.768 492.158C959.542 494.496 950.089 492.939 945.878 492.908L896.648 493.03L896.861 348.644L1020.08 348.61L1020.08 468.706C1014.24 468.659 1008.08 468.155 1002.42 469.781L972.463 469.856C969.884 469.868 964.809 469.315 962.5 470.117C961.713 470.391 960.1 471.947 959.375 472.5C957.434 478.87 960.9 485.79 962.768 492.158Z"/>
	<path fill="#FEFEFE" transform="scale(0.41245 0.41245)" d="M1216.19 493.417L1163.38 493.204C1162.25 490.743 1162.82 486.772 1162.81 484.082L1162.79 459.918L1162.78 349.096L1283.91 348.853L1283.8 404.838C1292.86 413.193 1298.18 422.221 1298.69 434.822C1299.05 443.947 1294.38 453.465 1288.18 459.886C1286.94 461.173 1285.66 462.312 1284.17 463.311C1278.09 466.472 1272.69 468.509 1265.7 467.911C1256.83 467.153 1249.54 461.754 1243.99 455.177L1244.24 459.291C1240.67 462.886 1237.17 467.05 1232.5 469.175C1231.49 469.153 1230.26 469.268 1229.29 469.042L1228.84 472.252C1228.29 476.549 1227.89 480.675 1227.96 485.01C1223.93 487.636 1219.73 490.137 1216.19 493.417Z"/>
	<path fill="#032261" transform="scale(0.41245 0.41245)" d="M1196.62 437.046C1187.79 431.437 1182.05 426.854 1178.97 416.258C1176.61 408.149 1178.13 399.564 1182.23 392.307C1187.26 383.408 1197.23 377.11 1206.99 374.704C1221.89 371.03 1238.69 376.744 1246.99 389.82C1247.8 391.085 1250.86 398.144 1251.56 398.606C1251.59 398.623 1253.99 398.162 1254.19 398.128C1257.6 397.536 1261.05 396.888 1264.53 397.211C1271.6 397.868 1277.85 401.208 1283.8 404.838C1292.86 413.193 1298.18 422.221 1298.69 434.822C1299.05 443.947 1294.38 453.465 1288.18 459.886C1286.94 461.173 1285.66 462.312 1284.17 463.311C1278.09 466.472 1272.69 468.509 1265.7 467.911C1256.83 467.153 1249.54 461.754 1243.99 455.177L1244.24 459.291C1240.67 462.886 1237.17 467.05 1232.5 469.175C1231.49 469.153 1230.26 469.268 1229.29 469.042L1228.84 472.252C1228.65 470.307 1228.67 468.967 1227.29 467.5L1221.41 468.781C1217.2 469.422 1212.69 468.239 1209.31 465.665C1200.33 458.814 1198 447.642 1196.62 437.046Z"/>
	<path fill="#AD4335" transform="scale(0.41245 0.41245)" d="M1196.62 437.046C1208.02 440.919 1218.46 439.292 1229.14 433.975C1234.19 431.462 1238.66 427.813 1242.79 424.017C1245.82 428.112 1248.87 431.211 1248 436.6C1247.22 441.443 1244.36 446.473 1242.06 450.775L1243.99 455.177L1244.24 459.291C1240.67 462.886 1237.17 467.05 1232.5 469.175C1231.49 469.153 1230.26 469.268 1229.29 469.042L1228.84 472.252C1228.65 470.307 1228.67 468.967 1227.29 467.5L1221.41 468.781C1217.2 469.422 1212.69 468.239 1209.31 465.665C1200.33 458.814 1198 447.642 1196.62 437.046Z"/>
	<path fill="#5F3750" transform="scale(0.41245 0.41245)" d="M1242.06 450.775L1243.99 455.177L1244.24 459.291C1240.67 462.886 1237.17 467.05 1232.5 469.175C1231.49 469.153 1230.26 469.268 1229.29 469.042L1229.37 467.232C1229.85 466.405 1230.23 465.799 1230.98 465.173C1236.04 460.924 1238.75 456.418 1242.06 450.775Z"/>
	<path fill="#FEFEFE" transform="scale(0.41245 0.41245)" d="M1284.15 244.035L1284.03 340.04L1163.1 340.14L1163.02 182.695L1246.41 182.183L1269.32 182.078C1273 182.073 1277.36 181.458 1280.69 183.217L1235.48 229.252C1232.25 232.576 1223.34 239.797 1221.9 243.901L1284.15 244.035Z"/>
	<path fill="#FEFEFE" transform="scale(0.41245 0.41245)" d="M1030.66 182.414L1154.35 182.568L1154.65 340.174L1029.1 340.202L1029.5 244.289L1026.89 241.821L1094.31 242.084L1030.66 182.414Z"/>
	<path fill="#FEFEFE" transform="scale(0.41245 0.41245)" d="M770.421 343.674C768.241 337.454 769.024 330.143 769.017 323.592L769.051 289.138L769.259 182.038L851.128 182.438L876.684 182.216C880.426 182.174 884.976 181.546 888.566 182.539L888.929 340.037L823.932 341.115C821.618 337.415 820.001 335.172 816 333.286C813.046 333.266 810.294 332.72 807.92 334.92L802.852 340.823C793.337 340.631 781.289 339.053 772.472 342.75L771.727 343.058L770.421 343.674Z"/>
	<path fill="#F6B947" transform="scale(0.41245 0.41245)" d="M1243.99 455.177C1249.54 461.754 1256.83 467.153 1265.7 467.911C1272.69 468.509 1278.09 466.472 1284.17 463.311C1284.11 479.078 1285.89 497.55 1283.36 513.056C1283.93 516.034 1285.28 520.153 1285.08 523.106C1286.53 537.078 1285.54 550.981 1283.75 564.877C1282.85 571.901 1280.25 581.619 1281.05 588.5C1281.74 594.417 1283.62 600.549 1284.92 606.378L1292.29 640.31C1293.05 643.879 1295.83 652.232 1294.5 655.246L1284.67 655.753L1277.42 655.915L1237.71 656.714C1231.14 656.86 1223.88 656.42 1217.4 657.504L1209.83 620.065L1208.04 612.5C1207.24 610.573 1206.52 610.561 1204.72 610.617C1180.61 611.373 1155.31 607.853 1131.56 604.063C1121.01 602.38 1109.24 600.975 1099.3 597.126C1099.55 595.244 1100.22 592.444 1099.53 590.656C1099 589.312 1095.09 587.942 1093.68 587.242L1139.36 585.11L1139.69 584.834C1142.97 581.951 1143.75 578.665 1144.01 574.502L1156.89 575.069L1156.86 574.185C1159.17 571.732 1161.14 568.632 1163.16 565.918L1205.49 507.234C1205.8 505.876 1208.86 502.371 1209.77 501.09L1216.19 493.417C1219.73 490.137 1223.93 487.636 1227.96 485.01C1227.89 480.675 1228.29 476.549 1228.84 472.252L1229.29 469.042C1230.26 469.268 1231.49 469.153 1232.5 469.175C1237.17 467.05 1240.67 462.886 1244.24 459.291L1243.99 455.177Z"/>
	<path fill="#4977C7" transform="scale(0.41245 0.41245)" d="M1187.33 575.581L1187.31 575.347L1194.96 572.22L1196.1 580.5L1195 581.803L1175.71 581.888L1182.5 581.172C1185.16 580.609 1186.05 577.753 1187.33 575.581Z"/>
	<path fill="#032261" transform="scale(0.41245 0.41245)" d="M1144.01 574.502L1156.89 575.069C1166.64 575.945 1177.65 577.091 1187.33 575.581C1186.05 577.753 1185.16 580.609 1182.5 581.172L1175.71 581.888L1139.36 585.11L1139.69 584.834C1142.97 581.951 1143.75 578.665 1144.01 574.502Z"/>
	<path fill="#EEA439" transform="scale(0.41245 0.41245)" d="M1205.49 507.234C1205.26 512.77 1201.93 518.453 1200.48 523.829C1195.99 540.449 1194.47 554.983 1194.96 572.22L1187.31 575.347L1187.33 575.581C1177.65 577.091 1166.64 575.945 1156.89 575.069L1156.86 574.185C1159.17 571.732 1161.14 568.632 1163.16 565.918L1205.49 507.234Z"/>
	<path fill="#FEFEFE" transform="scale(0.41245 0.41245)" d="M1243.99 455.177C1249.54 461.754 1256.83 467.153 1265.7 467.911C1272.69 468.509 1278.09 466.472 1284.17 463.311C1284.11 479.078 1285.89 497.55 1283.36 513.056C1281.72 507.991 1279.42 503.268 1276.5 498.826C1270.07 489.053 1260.31 484.842 1249.28 482.532C1241.37 481.891 1235.6 482.586 1227.96 485.01C1227.89 480.675 1228.29 476.549 1228.84 472.252L1229.29 469.042C1230.26 469.268 1231.49 469.153 1232.5 469.175C1237.17 467.05 1240.67 462.886 1244.24 459.291L1243.99 455.177Z"/>
	<path fill="#7A343F" transform="scale(0.41245 0.41245)" d="M1244.24 459.291L1249.28 482.532C1241.37 481.891 1235.6 482.586 1227.96 485.01C1227.89 480.675 1228.29 476.549 1228.84 472.252L1229.29 469.042C1230.26 469.268 1231.49 469.153 1232.5 469.175C1237.17 467.05 1240.67 462.886 1244.24 459.291Z"/>
	<path fill="#E3EDF8" transform="scale(0.41245 0.41245)" d="M268.592 707.719C269.146 712.025 269.583 719.531 273.187 722.347C276.991 725.318 289.498 723.938 294.392 723.935L353.905 723.868L354.834 724.137L371.151 723.899L371.031 842.203L371.042 842.765L357.196 843.5C356.449 847.963 356.661 851.905 357.512 856.338C352.599 856.824 348.216 859.971 344.024 862.401L295.032 890.158C290.175 890 285.312 889.375 280.988 892.004L278.635 896.837C278.002 897.103 277.471 897.341 276.778 897.416C267.767 898.384 257.612 897.597 248.499 897.627C245.074 897.639 239.208 898.461 236.499 896.24L246.154 822.011L247.633 816.44L252 816.721C255.402 816.614 256.302 815.869 258.562 813.573C258.656 807.238 260.072 797.511 258.55 791.565C258.247 790.378 256.74 788.526 255.5 788.165C252.833 787.389 247.277 788.14 244.362 788.131L209.646 788.023C207.126 788.015 201.459 788.696 199.437 787.426C204.347 767.54 209.654 749.391 220.002 731.629L221.111 731.293C226.663 733.679 231.498 733.864 237.406 732.654C250.421 729.987 261.519 718.174 268.592 707.719Z"/>
	<path fill="#3253AB" transform="scale(0.41245 0.41245)" d="M355.164 817.821L355.955 842.088L371.031 842.203L371.042 842.765L357.196 843.5C356.449 847.963 356.661 851.905 357.512 856.338C352.599 856.824 348.216 859.971 344.024 862.401C341.55 862.203 336.25 862.666 334.684 860.944L339.5 854.551L338.841 852.374C340.84 849.161 351.397 844.297 355.055 842.103L355.164 817.821Z"/>
	<path fill="#032261" transform="scale(0.41245 0.41245)" d="M338.841 852.374L339.5 854.551L334.684 860.944C336.25 862.666 341.55 862.203 344.024 862.401L295.032 890.158C290.175 890 285.312 889.375 280.988 892.004L281.495 889.808C282.022 887.85 282.561 886.443 284.128 885.055C288.162 881.48 294.248 878.833 298.94 875.996L338.841 852.374Z"/>
	<path fill="#072F79" transform="scale(0.41245 0.41245)" d="M354.834 724.137L371.151 723.899L371.031 842.203L355.955 842.088L355.164 817.821L354.834 724.137Z"/>
	<path fill="#FEFEFE" transform="scale(0.41245 0.41245)" d="M1019.21 159.872L1019.39 160.404C1020.49 164.14 1018.95 169.027 1020 172.186C1020.29 173.043 1029.22 181.545 1030.28 182.26L1030.66 182.414L1094.31 242.084L1026.89 241.821L1025.3 242.095C1024.98 248.349 1024.28 253.429 1019.84 258.236L1019.86 340.132L896.909 340.085L896.936 219.167L896.783 192.716C896.761 189.586 896.133 184.995 897.188 182.065L947.826 182.23C958.685 182.1 970.627 180.556 981.282 182.314C984.177 180.216 986.5 177.513 988.915 174.899C990.617 173.567 990.572 172.974 991.181 170.958C991.619 172.377 992.111 173.141 993 174.291L1019.08 174.361L1019.21 159.872Z"/>
	<path fill="#EEA439" transform="scale(0.41245 0.41245)" d="M981.841 241.975L1025.3 242.095C1024.98 248.349 1024.28 253.429 1019.84 258.236C1015.57 261.822 1010.34 264.659 1004.71 265.163C999.367 265.641 993.862 263.779 989.875 260.189C984.51 255.357 982.099 249.061 981.841 241.975Z"/>
	<path fill="#4977C7" transform="scale(0.41245 0.41245)" d="M1019.21 159.872L1019.39 160.404C1020.49 164.14 1018.95 169.027 1020 172.186C1020.29 173.043 1029.22 181.545 1030.28 182.26L1030.66 182.414L1094.31 242.084L1026.89 241.821L1025.3 242.095L981.841 241.975L917.727 241.99L981.282 182.314C984.177 180.216 986.5 177.513 988.915 174.899C990.617 173.567 990.572 172.974 991.181 170.958C991.619 172.377 992.111 173.141 993 174.291L1019.08 174.361L1019.21 159.872Z"/>
	<path fill="#072F79" transform="scale(0.41245 0.41245)" d="M1002.42 469.781L1034.58 469.912L1088.63 469.895C1096.88 469.908 1106.04 469.145 1114.18 470.035C1115.84 470.216 1117.41 471.101 1118.6 472.243C1122.9 476.357 1123.8 488.287 1125.27 494.098L1126.41 500.595L1139.59 557.608C1140.63 562.099 1141.43 570.817 1144.01 574.502C1143.75 578.665 1142.97 581.951 1139.69 584.834L1139.36 585.11L1093.68 587.242C1088.09 586.703 1080.27 584.453 1074.86 585.276C1071.56 585.777 1068.29 587.837 1065.11 588.162L909.587 588.357C904.715 590.167 893.753 588.592 888.224 588.523C890.919 585.82 893.129 583.34 894.599 579.77C900.36 565.776 890.923 547.159 885.596 534.143L872.298 501.775C876.389 498.509 951.366 501.964 965.045 499.85L962.768 492.158C960.9 485.79 957.434 478.87 959.375 472.5C960.1 471.947 961.713 470.391 962.5 470.117C964.809 469.315 969.884 469.868 972.463 469.856L1002.42 469.781Z"/>
	<path fill="#FEFEFE" transform="scale(0.41245 0.41245)" d="M1047.09 518.5C1049.23 517.717 1051.22 517.589 1053.47 517.815C1056.03 518.072 1057.86 519.57 1059.36 521.553C1061.57 524.459 1061.34 527.578 1060.86 531C1059.08 533.973 1057.44 535.234 1054.5 536.979C1053.52 537.301 1052.55 537.547 1051.5 537.545C1048.13 537.538 1045.12 536.144 1043.05 533.5C1041.56 531.6 1041.25 528.968 1041.57 526.649C1042.13 522.582 1044 520.838 1047.09 518.5Z"/>
	<path fill="#FEFEFE" transform="scale(0.41245 0.41245)" d="M872.298 501.775C876.389 498.509 951.366 501.964 965.045 499.85L985.864 575.083L926.715 574.941C921.545 574.929 910.373 573.563 906.5 576.323C905.949 579.56 905.438 582.916 907.525 585.755L908.493 586.947L909.587 588.357C904.715 590.167 893.753 588.592 888.224 588.523C890.919 585.82 893.129 583.34 894.599 579.77C900.36 565.776 890.923 547.159 885.596 534.143L872.298 501.775Z"/>
	<path fill="#57C2BF" transform="scale(0.41245 0.41245)" d="M750.838 433.032C754.202 440.928 758.777 447.079 767.044 450.335C775.064 453.496 784.849 453.523 792.691 449.9C796.371 448.199 799.475 445.698 802.102 442.628C803.478 441.02 805.139 437.367 806.981 436.619C822.17 441.19 838.036 444.932 849.344 456.81C858.887 467.062 863.604 480.481 868.849 493.241L872.298 501.775L885.596 534.143C890.923 547.159 900.36 565.776 894.599 579.77C893.129 583.34 890.919 585.82 888.224 588.523L861.366 588.819C858.147 588.837 854.146 589.451 851.264 587.995C847.301 589.636 842.091 589.131 837.854 589.154C827.321 589.209 815.718 588.146 805.325 589.4C802.608 590.307 799.095 589.889 796.211 589.895L776.407 589.897L680.174 589.275L679.11 588.936C671.54 584.449 664.356 579.09 661.803 570.171C660.754 566.506 660.549 562.053 661.19 558.294C664.063 541.469 670.827 523.984 675.485 507.447L684.273 475.981C685.715 470.92 686.894 464.711 689.453 460.182C691.835 455.967 696.014 451.811 700.102 449.24C705.085 446.106 711.633 444.615 717.257 442.859L750.838 433.032Z"/>
	<path fill="#078695" transform="scale(0.41245 0.41245)" d="M843.555 540.717C841.659 535.265 844.266 523.546 844.801 517.438C846.562 497.328 848.92 476.985 849.344 456.81C858.887 467.062 863.604 480.481 868.849 493.241L872.298 501.775L885.596 534.143C890.923 547.159 900.36 565.776 894.599 579.77C893.129 583.34 890.919 585.82 888.224 588.523L861.366 588.819C858.147 588.837 854.146 589.451 851.264 587.995C847.301 589.636 842.091 589.131 837.854 589.154C827.321 589.209 815.718 588.146 805.325 589.4L805.332 567.86L820.806 567.909C826.799 563.598 833.522 559.255 840.84 557.699C840.936 552.524 841.066 545.282 843.555 540.717Z"/>
	<path fill="#FEFEFE" transform="scale(0.41245 0.41245)" d="M840.84 557.699C840.936 552.524 841.066 545.282 843.555 540.717C845.408 545.556 847.36 549.985 849.929 554.5C848.342 556.68 843.553 557.06 840.84 557.699Z"/>
	<path fill="#EFC1A2" transform="scale(0.41245 0.41245)" d="M820.806 567.909C829.964 568.584 840.579 568.552 849.297 571.5L849.5 573.019L846.629 574.5C848.183 575.453 850.39 576.229 850.814 578.038C851.54 581.14 851.258 584.805 851.264 587.995C847.301 589.636 842.091 589.131 837.854 589.154C827.321 589.209 815.718 588.146 805.325 589.4L805.332 567.86L820.806 567.909Z"/>
	<path fill="#FEFEFE" transform="scale(0.41245 0.41245)" d="M215.607 386.17L387.272 386.249C384.865 401.556 377.936 418.076 372.996 432.863C354.638 432.682 338.546 436.829 325.118 450.128C311.975 463.144 304.527 481.336 298.189 498.381L254.467 498.186L250.104 498.053C245.088 498.004 236.806 496.774 233.015 500.568C230.676 502.908 229.187 505.069 229.192 508.5C229.201 514.922 232.619 523.455 233.996 530C236.929 543.949 238.752 558.312 242.298 572.101C233.263 575.071 227.612 584.66 223.506 592.78C218.066 603.536 214.978 616.785 214.675 628.812C213.647 629.462 213.262 630.01 212.5 630.947L188.449 627.878C186.27 634.953 184.265 639.014 178.254 643.68L177.999 645.821L176.96 645.817L175.626 644.488L171.5 644.532C156.616 643.286 144.546 628.215 135.549 617.739L133.648 617.576C117.012 603.014 103.2 588.365 97.4946 566.46C89.065 534.098 93.2549 497.49 110.297 468.5C129.632 435.609 159.652 414.064 192.809 396.78C200.377 392.835 207.245 388.304 215.607 386.17Z"/>
	<path fill="#078695" transform="scale(0.41245 0.41245)" d="M135.549 617.739C123.811 600.757 112.627 584.41 107.962 564C106.481 557.523 105.225 551.123 106.438 544.47C107.42 539.082 109.682 532.961 114.414 529.772C121.356 525.091 131.757 525.218 139.688 526.958C152.955 529.869 166.383 538.958 173.688 550.532C187.343 572.167 192.687 602.913 188.449 627.878C186.27 634.953 184.265 639.014 178.254 643.68L177.999 645.821L176.96 645.817L175.626 644.488L171.5 644.532C156.616 643.286 144.546 628.215 135.549 617.739Z"/>
	<path fill="#163E8D" transform="scale(0.41245 0.41245)" d="M1582.6 365.775C1588.21 367.884 1593.23 370.777 1595.77 376.488C1599.33 384.513 1597.21 400.13 1597.23 409.274L1597.55 485.476C1597.68 492.434 1596.5 502.823 1598.35 509.324C1596.72 513.72 1595.33 517.149 1590.84 519.233C1584.48 522.183 1569.85 520.302 1562.56 520.254L1496.86 519.904L1496.89 560.951L1454.13 561.287L1453.92 520.613L1453.21 520.837C1449.81 518.874 1440.06 519.946 1435.99 519.938L1384.27 519.891C1373.34 519.906 1359.4 521.537 1349.07 518.348C1348.64 517.736 1348.86 517.948 1348.25 517.488L1343.43 513.571C1340.86 510.934 1339.5 506.689 1339.44 503.085L1339.35 422.266C1339.35 409.737 1337.82 394.859 1339.86 382.562C1340.58 378.221 1342.15 374.905 1345.29 371.788C1348.27 368.827 1352.24 366.588 1356.44 366.045C1363.94 365.075 1372.56 365.82 1380.16 365.811L1429.82 365.917L1582.6 365.775Z"/>
	<path fill="#032261" transform="scale(0.41245 0.41245)" d="M1453.92 520.613C1453.22 511.9 1453.73 502.901 1453.8 494.156C1453.85 486.371 1452.32 477.407 1457.11 470.769C1459.14 467.961 1462.87 465.443 1466.35 464.973C1472.18 464.186 1483.75 463.176 1488.55 466.699C1492.39 469.511 1493.72 471.392 1495.3 475.921C1497.1 481.107 1496.63 487.289 1496.68 492.735L1496.86 519.904L1496.89 560.951L1454.13 561.287L1453.92 520.613Z"/>
	<path fill="#20A6A8" transform="scale(0.41245 0.41245)" d="M215.607 386.17L174.841 386.15L174.85 169.44C178.041 168.017 185.172 168.896 188.793 168.894L227.242 168.889L419.961 168.904L419.825 235.89L419.966 342.374C413.388 342.224 405.594 342.783 399.238 341.234C395.093 341.293 392.782 340.831 389.181 343.163C384.802 349.791 387.038 364.531 386.262 372.589C386.279 376.974 385.744 382.127 387.733 386.131L387.272 386.249L215.607 386.17Z"/>
	<path fill="#57C2BF" transform="scale(0.41245 0.41245)" d="M386.262 372.589L190.063 372.453L189.884 283.973L406.109 284.049L406.435 322.447C406.475 328.219 407.367 335.279 405.881 340.842C403.652 341.201 401.487 341.214 399.238 341.234C395.093 341.293 392.782 340.831 389.181 343.163C384.802 349.791 387.038 364.531 386.262 372.589Z"/>
	<path fill="#F6B947" transform="scale(0.41245 0.41245)" d="M215.856 328.5C217.221 328.549 218.682 328.596 220 328.98C223.071 329.875 224.439 332.308 225.739 335C225.845 338.972 226.203 341.726 223.388 344.936C221.445 347.152 219.317 347.619 216.5 347.888C214.86 347.683 212.976 347.498 211.478 346.764C209.047 345.572 207.594 343.588 206.86 341C206.066 338.198 206.344 335.43 207.928 332.954C209.728 330.14 212.802 329.266 215.856 328.5Z"/>
	<path fill="#57C2BF" transform="scale(0.41245 0.41245)" d="M317.273 182.506L406.288 182.944L406.685 269.905L278.165 269.773L189.967 269.58L189.893 183.001L317.273 182.506Z"/>
	<path fill="#F6B947" transform="scale(0.41245 0.41245)" d="M213.042 223.5C214.034 223.248 214.977 223.092 216.008 223.14C218.703 223.265 222.48 225.329 224.056 227.5C225.639 229.682 226.148 232.152 225.561 234.763C224.732 238.45 221.658 240.64 218.648 242.5C217.306 242.789 215.866 243.092 214.487 242.916C211.897 242.586 209.367 241.231 207.764 239.16C205.436 236.151 205.783 233.062 206.277 229.5C208.213 226.409 209.79 225.129 213.042 223.5Z"/>
	<path fill="#FEFEFE" transform="scale(0.41245 0.41245)" d="M419.825 235.89C440.049 241.057 459.291 246.945 477.962 256.479C518.225 277.04 544.999 310.201 567.626 348.348C574.314 359.623 580.739 371.397 588.772 381.797C605.646 403.645 628.486 418.65 655.219 425.497C678.951 431.575 701.598 431.085 725.672 427.372C731.724 426.438 750.924 420.604 755.631 422.864L750.838 433.032L717.257 442.859C711.633 444.615 705.085 446.106 700.102 449.24C696.014 451.811 691.835 455.967 689.453 460.182C686.894 464.711 685.715 470.92 684.273 475.981L675.485 507.447C670.827 523.984 664.063 541.469 661.19 558.294C660.549 562.053 660.754 566.506 661.803 570.171C664.356 579.09 671.54 584.449 679.11 588.936L648.235 588.639L609.173 588.808C605.302 588.824 597.567 589.884 594.44 587.849C590.398 586.509 585.63 586.945 581.431 586.964L560.425 587.136C555.125 589.442 546.796 588.335 541.035 588.334L500.125 588.212L467.889 588.026C460.523 587.989 452.635 588.981 445.857 585.557C451.168 584.536 456.074 585.606 461.5 583.887L464.527 582.794C470.73 579.989 475.923 573.343 478.283 567.045C481.167 559.352 479.649 553.381 476.277 546.308C472.021 541.321 468.971 533.603 466.013 527.675L442.643 478.522C439.449 471.917 436.561 464.686 432.751 458.457C426.541 448.305 416.897 443.318 405.694 440.593L372.996 432.863C377.936 418.076 384.865 401.556 387.272 386.249L387.733 386.131C385.744 382.127 386.279 376.974 386.262 372.589C387.038 364.531 384.802 349.791 389.181 343.163C392.782 340.831 395.093 341.293 399.238 341.234C405.594 342.783 413.388 342.224 419.966 342.374L419.825 235.89Z"/>
	<path fill="#032261" transform="scale(0.41245 0.41245)" d="M564.451 577.069L591.41 576.99L618.245 488.996L624.816 467.625C625.514 465.428 626.329 461.305 627.672 459.5C628.101 458.924 629.384 458.217 630 457.755L632.5 458.299C632.69 458.789 633.361 460.043 633.353 460.5C633.24 467.058 628.19 477.096 626.197 483.534L604.632 553.904C601.258 565.023 596.927 576.522 594.44 587.849C590.398 586.509 585.63 586.945 581.431 586.964L560.425 587.136C563.197 583.699 564.064 581.468 564.451 577.069Z"/>
	<path fill="#072F79" transform="scale(0.41245 0.41245)" d="M386.262 372.589C387.038 364.531 384.802 349.791 389.181 343.163C392.782 340.831 395.093 341.293 399.238 341.234C405.594 342.783 413.388 342.224 419.966 342.374L467.792 344.266C464.593 354.389 458.113 371.926 447.85 377.05C446.937 377.506 445.994 377.782 445.002 378.002L418.5 375.361C414.067 374.954 409.854 373.916 405.744 375.728C402.643 379.192 405.367 386.608 400.185 386.88C396.309 387.084 391.463 387.313 387.733 386.131C385.744 382.127 386.279 376.974 386.262 372.589Z"/>
	<path fill="#DD622D" transform="scale(0.41245 0.41245)" d="M476.277 546.308L535.529 561.071C542.469 562.851 551.041 564.05 557.474 566.935C559.419 567.807 561.535 569.645 562.598 571.5C563.53 573.126 564.094 575.231 564.451 577.069C564.064 581.468 563.197 583.699 560.425 587.136C555.125 589.442 546.796 588.335 541.035 588.334L500.125 588.212L467.889 588.026C460.523 587.989 452.635 588.981 445.857 585.557C451.168 584.536 456.074 585.606 461.5 583.887L464.527 582.794C470.73 579.989 475.923 573.343 478.283 567.045C481.167 559.352 479.649 553.381 476.277 546.308Z"/>
	<path fill="#C85F44" transform="scale(0.41245 0.41245)" d="M387.733 386.131C391.463 387.313 396.309 387.084 400.185 386.88C405.367 386.608 402.643 379.192 405.744 375.728C409.854 373.916 414.067 374.954 418.5 375.361L445.002 378.002C441.812 390.946 437.971 412.692 425.854 420.234C421.344 423.042 416.503 423.108 411.5 421.969L410.172 424.908L408.654 430.178L405.694 440.593L372.996 432.863C377.936 418.076 384.865 401.556 387.272 386.249L387.733 386.131Z"/>
	<path fill="#5F3750" transform="scale(0.41245 0.41245)" d="M408.654 430.178C406.127 428.583 403.302 426.967 401.507 424.52C398.552 420.493 399.722 416.084 400.344 411.5L401.5 411.083C403.553 415.573 406.225 417.95 409.94 421L410.172 424.908L408.654 430.178Z"/>
	<path fill="#163E8D" transform="scale(0.41245 0.41245)" d="M254.467 498.186L298.189 498.381C304.527 481.336 311.975 463.144 325.118 450.128C338.546 436.829 354.638 432.682 372.996 432.863L405.694 440.593C416.897 443.318 426.541 448.305 432.751 458.457C436.561 464.686 439.449 471.917 442.643 478.522L466.013 527.675C468.971 533.603 472.021 541.321 476.277 546.308C479.649 553.381 481.167 559.352 478.283 567.045C475.923 573.343 470.73 579.989 464.527 582.794L461.5 583.887C456.074 585.606 451.168 584.536 445.857 585.557C452.635 588.981 460.523 587.989 467.889 588.026L500.125 588.212L500.592 619.5C503.65 621.521 507.068 619.797 509.135 622.5L509.129 651.104C509.12 656.656 509.584 662.68 508.531 668.13L509.196 669.257C517.405 682.957 524.219 698.847 520.204 715.18L512.699 742.511C511.328 747.439 510.287 753.203 508.22 757.853L507.23 761.973L480.075 857.239L474.933 875.033C474.204 877.516 473.641 880.814 472.054 882.85C471.352 885.876 471.066 886.916 471.983 889.99C466.009 891.44 459.535 890.961 453.422 890.953C452.706 893.614 453.593 895.656 451.5 897.717L437.024 888.85C437.098 886.862 437.542 884.86 437.865 882.896L418.48 882.981L416.408 882.752C416.328 879 416.87 873.859 414.995 870.572L396.066 859.475C389.226 853.272 378.864 848.037 371.042 842.765L371.031 842.203L371.151 723.899L354.834 724.137L353.905 723.868L294.392 723.935C289.498 723.938 276.991 725.318 273.187 722.347C269.583 719.531 269.146 712.025 268.592 707.719L263.644 681.431C262.55 666.206 258.232 649.85 255.27 634.841L242.298 572.101C238.752 558.312 236.929 543.949 233.996 530C232.619 523.455 229.201 514.922 229.192 508.5C229.187 505.069 230.676 502.908 233.015 500.568C236.806 496.774 245.088 498.004 250.104 498.053L254.467 498.186Z"/>
	<path fill="#E3EDF8" transform="scale(0.41245 0.41245)" d="M437.865 882.896C439.654 879.027 440.385 873.581 441.315 869.384C443.684 858.687 445.381 847.46 448.669 837.017L449.843 850.061L450.051 881.5C450.756 882.153 451.168 882.652 452.094 882.961C453.253 885.879 453.649 887.797 453.422 890.953C452.706 893.614 453.593 895.656 451.5 897.717L437.024 888.85C437.098 886.862 437.542 884.86 437.865 882.896Z"/>
	<path fill="#DD622D" transform="scale(0.41245 0.41245)" d="M275.844 654.76C286.551 674.793 301.954 690.722 324.229 697.448C344.79 703.657 369.609 700.861 390.91 700.758C392.311 700.751 400.859 700.422 401.202 701.224C403.432 706.443 402.69 717.687 403.129 723.791L371.151 723.899L354.834 724.137L353.905 723.868C350.824 721.903 343.728 722.935 340.018 722.943L298.972 723.088C295.846 723.103 289.365 723.993 286.685 722.501L275.844 654.76Z"/>
	<path fill="#F18549" transform="scale(0.41245 0.41245)" d="M242.298 572.101C238.752 558.312 236.929 543.949 233.996 530C232.619 523.455 229.201 514.922 229.192 508.5C229.187 505.069 230.676 502.908 233.015 500.568C236.806 496.774 245.088 498.004 250.104 498.053L244.58 499.5C245.083 507.343 266.118 610.707 267.582 612.154C266.932 619.926 265.705 627.706 266.327 635.5C267.667 635.94 268.959 636.401 270.348 636.663L275.844 654.76L286.685 722.501C289.365 723.993 295.846 723.103 298.972 723.088L340.018 722.943C343.728 722.935 350.824 721.903 353.905 723.868L294.392 723.935C289.498 723.938 276.991 725.318 273.187 722.347C269.583 719.531 269.146 712.025 268.592 707.719L263.644 681.431C262.55 666.206 258.232 649.85 255.27 634.841L242.298 572.101Z"/>
	<path fill="#E3EDF8" transform="scale(0.41245 0.41245)" d="M371.151 723.899L403.129 723.791L414.995 870.572L396.066 859.475C389.226 853.272 378.864 848.037 371.042 842.765L371.031 842.203L371.151 723.899Z"/>
	<path fill="#032261" transform="scale(0.41245 0.41245)" d="M425.89 636.237C455.699 635.824 480.858 640.694 502.928 662.21L508.531 668.13L509.196 669.257C517.405 682.957 524.219 698.847 520.204 715.18L512.699 742.511C511.328 747.439 510.287 753.203 508.22 757.853L507.23 761.973L480.075 857.239L474.933 875.033C474.204 877.516 473.641 880.814 472.054 882.85C471.352 885.876 471.066 886.916 471.983 889.99C466.009 891.44 459.535 890.961 453.422 890.953C453.649 887.797 453.253 885.879 452.094 882.961C451.168 882.652 450.756 882.153 450.051 881.5L449.843 850.061C451.215 842.344 449.145 833.974 450.207 826.148L466.088 726.049C467.619 715.921 470.681 704.757 471.094 694.629C471.334 688.738 470.335 683.545 468.375 677.985C461.178 657.569 443.733 646.391 425.209 637.647L425.89 636.237Z"/>
	<path fill="#F79E80" transform="scale(0.41245 0.41245)" d="M452.094 882.961L472.054 882.85C471.352 885.876 471.066 886.916 471.983 889.99C466.009 891.44 459.535 890.961 453.422 890.953C453.649 887.797 453.253 885.879 452.094 882.961Z"/>
	<path fill="#F79E80" transform="scale(0.41245 0.41245)" d="M254.467 498.186L298.189 498.381C304.527 481.336 311.975 463.144 325.118 450.128C338.546 436.829 354.638 432.682 372.996 432.863L405.694 440.593C416.897 443.318 426.541 448.305 432.751 458.457C436.561 464.686 439.449 471.917 442.643 478.522L466.013 527.675C468.971 533.603 472.021 541.321 476.277 546.308C479.649 553.381 481.167 559.352 478.283 567.045C475.923 573.343 470.73 579.989 464.527 582.794L461.5 583.887C456.074 585.606 451.168 584.536 445.857 585.557C452.635 588.981 460.523 587.989 467.889 588.026L500.125 588.212L500.592 619.5C503.65 621.521 507.068 619.797 509.135 622.5L509.129 651.104C509.12 656.656 509.584 662.68 508.531 668.13L502.928 662.21C480.858 640.694 455.699 635.824 425.89 636.237L423.805 636.061C415.574 637.185 406.809 636.605 398.498 636.577L270.348 636.663C268.959 636.401 267.667 635.94 266.327 635.5C265.705 627.706 266.932 619.926 267.582 612.154C266.118 610.707 245.083 507.343 244.58 499.5L250.104 498.053L254.467 498.186Z"/>
	<path fill="#DD622D" transform="scale(0.41245 0.41245)" d="M375.693 497.762C373.097 487.115 372.732 477.431 378.583 467.642C383.253 459.829 390.769 454.072 399.642 451.906C402.595 451.185 405.208 451.123 408.209 451.475C399.542 453.176 391.057 456.035 385.945 463.846C381.515 470.615 379.769 480.104 381.414 488.058C383.547 498.367 390.232 507.443 395.924 516.076L415.955 546.551C417.959 549.675 421.933 554.599 422.97 558C423.841 560.853 423.296 567.202 422.892 570.143L395.324 527.87C388.582 517.875 381.125 508.583 375.693 497.762Z"/>
	<path fill="#F18549" transform="scale(0.41245 0.41245)" d="M375.693 497.762C381.125 508.583 388.582 517.875 395.324 527.87L422.892 570.143L423.383 572.529L423.805 636.061C415.574 637.185 406.809 636.605 398.498 636.577L413.022 636.201L375.693 497.762Z"/>
	<path fill="#DD622D" transform="scale(0.41245 0.41245)" d="M250.104 498.053L254.467 498.186L255.361 498.318C269.079 500.246 284.098 498.802 298.001 499.21C283.863 535.345 272.197 573.522 267.582 612.154C266.118 610.707 245.083 507.343 244.58 499.5L250.104 498.053Z"/>
	<path fill="#FEFEFE" transform="scale(0.41245 0.41245)" d="M423.383 572.529L424.421 560.174C429.87 568.285 436.737 581.686 445.857 585.557C452.635 588.981 460.523 587.989 467.889 588.026L500.125 588.212L500.592 619.5C503.65 621.521 507.068 619.797 509.135 622.5L509.129 651.104C509.12 656.656 509.584 662.68 508.531 668.13L502.928 662.21C480.858 640.694 455.699 635.824 425.89 636.237L423.805 636.061L423.383 572.529Z"/>
	<path fill="#FEFEFE" transform="scale(0.41245 0.41245)" d="M1582.6 365.775C1575.06 363.071 1563.13 364.629 1555.08 364.634L1477.27 364.781C1465.85 364.808 1451.98 366.28 1440.82 364.301C1483.09 352.066 1516.12 320.568 1551.68 296.229C1588.82 270.808 1630.82 252.855 1675.62 247.134C1736.22 239.395 1801.03 256.079 1853.92 285.151C1897.88 309.309 1930.42 348.968 1944.35 397.17C1950.57 418.7 1954.28 443.021 1951.11 465.334C1947.37 491.599 1935.34 515.367 1922.98 538.5L1921.67 540.65L1920.36 540.763C1920.42 548.174 1919.07 555.284 1917.8 562.549C1917.49 564.337 1917.3 567.761 1916.41 569.224C1912.74 590.968 1911.22 625.509 1891.9 638.953C1885.13 643.659 1878.07 644.52 1870.1 644.081L1869.36 643.827C1867.74 650.481 1868.09 656.734 1867.79 663.5C1866.48 693.159 1869.72 722.552 1868.5 752.098C1865.26 737.463 1860.37 724.62 1854.59 710.85C1852.93 705.572 1849.55 699.157 1846.1 694.818C1845.47 694.404 1844.17 693.284 1843.5 693.121C1842.93 692.981 1839.5 694.213 1838.66 694.366C1832.23 695.538 1825.77 693.279 1819.95 690.816C1814.26 695.856 1803.06 699.024 1796.03 702.337L1786.5 697.421C1785.36 699.961 1786.74 702.609 1787.43 705.267C1785.77 707.024 1784.04 707.548 1781.82 708.282L1791.14 811.882L1794.17 846.043C1794.82 853.22 1795.93 860.666 1795.67 867.865L1794.05 868.616C1791.84 875.898 1792.99 885.46 1793.07 893.086C1789.6 893.493 1785.58 894.357 1782.15 893.555L1769.49 896.89L1690.66 896.913C1678.61 896.911 1664.63 898.312 1652.81 896.255L1650.46 895.056C1646.64 895.346 1642.01 894.108 1638.19 893.534C1632.71 894.316 1627.54 896.184 1622.3 897.908C1610.55 895.954 1596.81 897.223 1584.81 897.276L1584.85 822.62C1584.91 810.973 1586.81 795.638 1584.36 784.426L1584.17 783.634C1583.48 779.777 1584.09 774.524 1584.07 770.536L1584.03 742.079L1584.18 635.439L1583.84 626.97L1582.5 623.764C1572.52 623.752 1561.98 623.027 1552.09 624.203L1551.9 623.035L1552.15 587.991L1514.99 587.946C1515.06 584.127 1515.79 578.881 1514.17 575.382L1513.95 574.939C1510.29 573.537 1501.05 574.872 1496.81 574.983L1496.89 560.951L1496.86 519.904L1562.56 520.254C1569.85 520.302 1584.48 522.183 1590.84 519.233C1595.33 517.149 1596.72 513.72 1598.35 509.324C1596.5 502.823 1597.68 492.434 1597.55 485.476L1597.23 409.274C1597.21 400.13 1599.33 384.513 1595.77 376.488C1593.23 370.777 1588.21 367.884 1582.6 365.775Z"/>
	<path fill="#57C2BF" transform="scale(0.41245 0.41245)" d="M1779.72 593.32C1781.88 596.894 1791.24 599.584 1795.14 601.251C1824.76 613.936 1870.33 633.842 1860.32 674.454C1858.33 682.513 1852.91 687.753 1846.15 692.248L1846.1 694.818C1845.47 694.404 1844.17 693.284 1843.5 693.121C1842.93 692.981 1839.5 694.213 1838.66 694.366C1832.23 695.538 1825.77 693.279 1819.95 690.816C1814.26 695.856 1803.06 699.024 1796.03 702.337L1786.5 697.421C1785.36 699.961 1786.74 702.609 1787.43 705.267C1785.77 707.024 1784.04 707.548 1781.82 708.282C1780.12 699.402 1780.39 689.333 1779.87 680.258C1777.67 668.387 1779.05 654.022 1779.04 641.867C1779.02 626.099 1777.7 608.907 1779.72 593.32Z"/>
	<path fill="#FEFEFE" transform="scale(0.41245 0.41245)" d="M1779.87 680.258L1780.29 601.807C1782.7 608.487 1784.09 615.486 1786.13 622.284L1794.18 646.313C1799.27 662.363 1803.87 682.071 1819.95 690.816C1814.26 695.856 1803.06 699.024 1796.03 702.337L1786.5 697.421C1785.36 699.961 1786.74 702.609 1787.43 705.267C1785.77 707.024 1784.04 707.548 1781.82 708.282C1780.12 699.402 1780.39 689.333 1779.87 680.258Z"/>
	<path fill="#C85F44" transform="scale(0.41245 0.41245)" d="M1762.39 384.94L1768 386.705L1769.86 385.139L1769.96 385.588C1770.94 388.978 1776.7 392.42 1779.32 394.968L1815.05 430.523C1821.67 437.101 1832.48 445.579 1836.16 454L1836.39 454.516C1837.68 457.407 1837.69 461.643 1836.61 464.613C1834.12 471.48 1824.37 480.312 1819.56 485.942L1774.53 538.398C1770.02 542.699 1764.98 546.009 1760.21 549.956C1756.83 552.753 1752.57 557.898 1748 558.076C1745.09 556.628 1745.61 556.228 1743.66 554L1741.47 551.936L1744 548.961C1745.04 549.745 1745.44 549.5 1746.71 549.5L1745.18 547C1748.55 541.231 1754.33 540.405 1759.23 536.403C1763.04 533.289 1765.89 529.142 1768.65 525.114L1762.01 515.28C1763.59 513.837 1763.69 513.925 1763.73 511.708C1763.86 505.016 1762.32 497.681 1761.93 490.887C1761.07 475.879 1761.8 461.64 1763.47 446.718L1763.59 446.646L1766.3 427.047L1751.76 413.167C1751.19 410.701 1752.76 408.253 1753.69 405.917L1762.39 384.94Z"/>
	<path fill="#FEFEFE" transform="scale(0.41245 0.41245)" d="M1766.3 427.047L1803.07 461.869L1768.65 525.114L1762.01 515.28C1763.59 513.837 1763.69 513.925 1763.73 511.708C1763.86 505.016 1762.32 497.681 1761.93 490.887C1761.07 475.879 1761.8 461.64 1763.47 446.718L1763.59 446.646L1766.3 427.047Z"/>
	<path fill="#20A6A8" transform="scale(0.41245 0.41245)" d="M1859.37 637.259C1855.96 633.905 1852.96 629.882 1851.47 625.304C1846.48 610.019 1848.29 591.726 1848.97 575.923C1849.61 561.293 1849.2 542.349 1856.35 529.184C1860.73 521.121 1867.88 515.779 1876.64 513.214C1885.65 510.574 1895.9 512.164 1904.01 516.762C1913.77 522.294 1917.65 530.424 1920.36 540.763C1920.42 548.174 1919.07 555.284 1917.8 562.549C1917.49 564.337 1917.3 567.761 1916.41 569.224C1912.74 590.968 1911.22 625.509 1891.9 638.953C1885.13 643.659 1878.07 644.52 1870.1 644.081L1869.36 643.827C1865.74 641.94 1862.61 639.732 1859.37 637.259Z"/>
	<path fill="#078695" transform="scale(0.41245 0.41245)" d="M1859.37 637.259C1861.45 630.126 1867.4 626.169 1870.1 619.768C1871.26 617.006 1870.05 613.957 1870.89 611.292C1872.45 606.355 1870.28 599.983 1872.5 595.51L1873.85 596.005C1874.64 602.453 1873.35 610.261 1873.32 617.016L1914.5 568.779L1916.41 569.224C1912.74 590.968 1911.22 625.509 1891.9 638.953C1885.13 643.659 1878.07 644.52 1870.1 644.081L1869.36 643.827C1865.74 641.94 1862.61 639.732 1859.37 637.259Z"/>
	<path fill="#032261" transform="scale(0.41245 0.41245)" d="M1677.84 339.138C1671.97 332.803 1669.26 315.551 1669.59 306.935C1669.98 296.459 1674.15 288.68 1681.68 281.667C1690.74 273.226 1704.02 271.328 1715.92 271.899C1727.26 272.444 1737.92 277.398 1745.55 285.847C1756.53 298.023 1758.65 319.546 1757.68 335.298L1757.2 341.311C1766.06 346.509 1772.76 352.371 1775.42 362.854C1777.38 370.588 1775.11 376.66 1771.1 383.17L1769.86 385.139L1768 386.705L1762.39 384.94C1752.1 379.329 1742.28 374.838 1731.06 371.3L1722.95 369.409L1701.43 367.806L1695.81 368.996C1685.23 373.081 1673.87 376.626 1664.63 383.332L1663.44 375.589C1662.25 365.76 1663.53 357.098 1669.41 348.848C1671.79 345.502 1674.99 342.836 1677.51 339.579L1677.84 339.138Z"/>
	<path fill="#AD4335" transform="scale(0.41245 0.41245)" d="M1723.01 340.96L1722.95 369.409L1701.43 367.806L1701.02 354.876L1706.09 353.949C1714.29 352.382 1718.52 347.627 1723.01 340.96Z"/>
	<path fill="#C85F44" transform="scale(0.41245 0.41245)" d="M1679.54 327.76C1679.88 318.38 1681.49 310.817 1685.11 302.152C1698.6 316.421 1709.33 322.114 1728.04 326.914C1726.72 331.788 1725.55 336.544 1723.01 340.96C1718.52 347.627 1714.29 352.382 1706.09 353.949L1701.02 354.876C1697.21 354.012 1693.08 352.183 1690.08 349.677C1682.96 343.741 1680.35 336.801 1679.54 327.76Z"/>
	<path fill="#F6B947" transform="scale(0.41245 0.41245)" d="M1701.43 367.806L1722.95 369.409L1731.06 371.3C1742.28 374.838 1752.1 379.329 1762.39 384.94L1753.69 405.917C1752.76 408.253 1751.19 410.701 1751.76 413.167L1766.3 427.047L1763.59 446.646L1763.47 446.718C1761.8 461.64 1761.07 475.879 1761.93 490.887C1762.32 497.681 1763.86 505.016 1763.73 511.708C1763.69 513.925 1763.59 513.837 1762.01 515.28L1750.55 514.976L1680.47 515.021L1676.01 514.739C1677.77 501.974 1677.67 491.53 1673.32 479.298C1671.92 467.201 1660.45 454.679 1654.73 444.17C1652.53 440.129 1651.44 435.482 1650.21 431.071L1664.63 383.332C1673.87 376.626 1685.23 373.081 1695.81 368.996L1701.43 367.806Z"/>
	<path fill="#C85F44" transform="scale(0.41245 0.41245)" d="M1701.43 367.806L1722.95 369.409L1731.06 371.3C1729.7 380.814 1726.09 395.975 1718.9 402.865C1716.27 405.384 1714.16 406.175 1710.53 406.066C1707.29 405.968 1704.31 405.108 1702.11 402.607C1695.38 394.95 1695.27 378.692 1695.81 368.996L1701.43 367.806Z"/>
	<path fill="#EEA439" transform="scale(0.41245 0.41245)" d="M1750.55 514.976C1750.89 508.973 1749.98 503.433 1748.37 497.669C1741.13 471.745 1710.38 467.718 1690.35 456.459C1703.89 459.11 1718.76 462.822 1732.59 461.176C1746.55 459.513 1753.67 455.138 1762.32 444.181L1763.47 446.718C1761.8 461.64 1761.07 475.879 1761.93 490.887C1762.32 497.681 1763.86 505.016 1763.73 511.708C1763.69 513.925 1763.59 513.837 1762.01 515.28L1750.55 514.976Z"/>
	<path fill="#078695" transform="scale(0.41245 0.41245)" d="M1650.21 431.071C1651.44 435.482 1652.53 440.129 1654.73 444.17C1660.45 454.679 1671.92 467.201 1673.32 479.298C1677.67 491.53 1677.77 501.974 1676.01 514.739L1680.47 515.021L1750.55 514.976L1762.01 515.28L1768.65 525.114C1765.89 529.142 1763.04 533.289 1759.23 536.403C1754.33 540.405 1748.55 541.231 1745.18 547L1746.71 549.5C1745.44 549.5 1745.04 549.745 1744 548.961L1741.47 551.936L1743.66 554C1745.61 556.228 1745.09 556.628 1748 558.076C1752.57 557.898 1756.83 552.753 1760.21 549.956C1764.98 546.009 1770.02 542.699 1774.53 538.398C1783.33 554.798 1780.85 575.176 1779.72 593.32C1777.7 608.907 1779.02 626.099 1779.04 641.867C1779.05 654.022 1777.67 668.387 1779.87 680.258C1780.39 689.333 1780.12 699.402 1781.82 708.282L1791.14 811.882L1794.17 846.043C1794.82 853.22 1795.93 860.666 1795.67 867.865L1794.05 868.616C1791.84 875.898 1792.99 885.46 1793.07 893.086C1789.6 893.493 1785.58 894.357 1782.15 893.555L1769.49 896.89L1690.66 896.913C1678.61 896.911 1664.63 898.312 1652.81 896.255L1650.46 895.056C1646.64 895.346 1642.01 894.108 1638.19 893.534C1632.71 894.316 1627.54 896.184 1622.3 897.908C1610.55 895.954 1596.81 897.223 1584.81 897.276L1584.85 822.62C1584.91 810.973 1586.81 795.638 1584.36 784.426L1584.17 783.634C1583.48 779.777 1584.09 774.524 1584.07 770.536L1584.03 742.079L1584.18 635.439L1583.84 626.97L1582.5 623.764C1572.52 623.752 1561.98 623.027 1552.09 624.203L1551.9 623.035L1552.15 587.991L1514.99 587.946C1515.06 584.127 1515.79 578.881 1514.17 575.382L1513.95 574.939C1510.29 573.537 1501.05 574.872 1496.81 574.983L1496.89 560.951L1496.86 519.904L1562.56 520.254C1569.85 520.302 1584.48 522.183 1590.84 519.233C1595.33 517.149 1596.72 513.72 1598.35 509.324C1596.5 502.823 1597.68 492.434 1597.55 485.476C1608.31 485.269 1626.62 487.772 1635.5 481.499C1645.93 474.121 1648.05 443.45 1650.21 431.071Z"/>
	<path fill="#FEFEFE" transform="scale(0.41245 0.41245)" d="M1713.54 646.534L1735.26 726.976L1689.28 746.892L1713.54 646.534Z"/>
	<path fill="#E3EDF8" transform="scale(0.41245 0.41245)" d="M1689.28 746.892L1735.26 726.976L1774.33 868.729C1775.27 869.066 1775.91 869.443 1776.9 869.306L1794.05 868.616C1791.84 875.898 1792.99 885.46 1793.07 893.086C1789.6 893.493 1785.58 894.357 1782.15 893.555L1769.49 896.89L1690.66 896.913C1678.61 896.911 1664.63 898.312 1652.81 896.255L1650.46 895.056C1646.64 895.346 1642.01 894.108 1638.19 893.534C1638.75 886.276 1641.58 875.587 1639.19 868.784C1643.36 868.842 1652.75 868.001 1656.23 869.842L1658.02 869.211C1661.42 866.036 1665.84 840.677 1667.41 834.169L1689.28 746.892Z"/>
	<path fill="#C85F44" transform="scale(0.41245 0.41245)" d="M1776.9 869.306L1794.05 868.616C1791.84 875.898 1792.99 885.46 1793.07 893.086C1789.6 893.493 1785.58 894.357 1782.15 893.555C1780.21 886.289 1781.54 875.25 1776.9 869.306Z"/>
	<path fill="#AD4335" transform="scale(0.41245 0.41245)" d="M1639.19 868.784C1643.36 868.842 1652.75 868.001 1656.23 869.842L1650.46 895.056C1646.64 895.346 1642.01 894.108 1638.19 893.534C1638.75 886.276 1641.58 875.587 1639.19 868.784Z"/>
	<path fill="#20A6A8" transform="scale(0.41245 0.41245)" d="M1750.55 514.976L1762.01 515.28L1768.65 525.114C1765.89 529.142 1763.04 533.289 1759.23 536.403C1754.33 540.405 1748.55 541.231 1745.18 547L1746.71 549.5C1745.44 549.5 1745.04 549.745 1744 548.961L1741.47 551.936L1743.66 554C1745.61 556.228 1745.09 556.628 1748 558.076C1752.57 557.898 1756.83 552.753 1760.21 549.956C1764.98 546.009 1770.02 542.699 1774.53 538.398C1783.33 554.798 1780.85 575.176 1779.72 593.32C1777.7 608.907 1779.02 626.099 1779.04 641.867C1779.05 654.022 1777.67 668.387 1779.87 680.258C1780.39 689.333 1780.12 699.402 1781.82 708.282L1791.14 811.882L1794.17 846.043C1794.82 853.22 1795.93 860.666 1795.67 867.865L1794.05 868.616L1776.9 869.306C1775.91 869.443 1775.27 869.066 1774.33 868.729L1735.26 726.976L1713.54 646.534C1715.18 640.262 1699.89 590.483 1697.12 580L1680.47 515.021L1750.55 514.976Z"/>
	<path fill="#FEFEFE" transform="scale(0.41245 0.41245)" d="M1650.21 431.071C1651.44 435.482 1652.53 440.129 1654.73 444.17C1660.45 454.679 1671.92 467.201 1673.32 479.298C1677.67 491.53 1677.77 501.974 1676.01 514.739C1669.49 534.199 1664.18 553.554 1661.11 573.884C1657.47 597.945 1656.5 623.035 1654.44 647.313L1645.25 755.778L1637.41 867.677L1639.19 868.784C1641.58 875.587 1638.75 886.276 1638.19 893.534C1632.71 894.316 1627.54 896.184 1622.3 897.908C1610.55 895.954 1596.81 897.223 1584.81 897.276L1584.85 822.62C1584.91 810.973 1586.81 795.638 1584.36 784.426L1584.17 783.634C1583.48 779.777 1584.09 774.524 1584.07 770.536L1584.03 742.079L1584.18 635.439L1583.84 626.97L1582.5 623.764C1572.52 623.752 1561.98 623.027 1552.09 624.203L1551.9 623.035L1552.15 587.991L1514.99 587.946C1515.06 584.127 1515.79 578.881 1514.17 575.382L1513.95 574.939C1510.29 573.537 1501.05 574.872 1496.81 574.983L1496.89 560.951L1496.86 519.904L1562.56 520.254C1569.85 520.302 1584.48 522.183 1590.84 519.233C1595.33 517.149 1596.72 513.72 1598.35 509.324C1596.5 502.823 1597.68 492.434 1597.55 485.476C1608.31 485.269 1626.62 487.772 1635.5 481.499C1645.93 474.121 1648.05 443.45 1650.21 431.071Z"/>
	<path fill="#4977C7" transform="scale(0.41245 0.41245)" d="M1552.15 587.991L1606.93 588.231L1606.92 623.784L1585.5 623.816C1584.44 624.923 1584.14 625.401 1583.84 626.97L1582.5 623.764C1572.52 623.752 1561.98 623.027 1552.09 624.203L1551.9 623.035L1552.15 587.991Z"/>
	<path fill="#AD4335" transform="scale(0.41245 0.41245)" d="M1650.21 431.071C1651.44 435.482 1652.53 440.129 1654.73 444.17C1660.45 454.679 1671.92 467.201 1673.32 479.298C1670.87 489.665 1668.19 500.802 1658.5 506.862C1653.31 510.107 1644.63 509.094 1638.65 509.11L1598.35 509.324C1596.5 502.823 1597.68 492.434 1597.55 485.476C1608.31 485.269 1626.62 487.772 1635.5 481.499C1645.93 474.121 1648.05 443.45 1650.21 431.071Z"/>
	<path fill="#E3EDF8" transform="scale(0.41245 0.41245)" d="M1584.18 635.439L1584.37 636.26C1585.54 641.676 1585.14 647.602 1585.17 653.13L1585.24 681.171L1585.09 785.01L1645.25 755.778L1637.41 867.677L1639.19 868.784C1641.58 875.587 1638.75 886.276 1638.19 893.534C1632.71 894.316 1627.54 896.184 1622.3 897.908C1610.55 895.954 1596.81 897.223 1584.81 897.276L1584.85 822.62C1584.91 810.973 1586.81 795.638 1584.36 784.426L1584.17 783.634C1583.48 779.777 1584.09 774.524 1584.07 770.536L1584.03 742.079L1584.18 635.439Z"/>
	<path fill="#B4CEE9" transform="scale(0.41245 0.41245)" d="M1349.07 518.348C1359.4 521.537 1373.34 519.906 1384.27 519.891L1435.99 519.938C1440.06 519.946 1449.81 518.874 1453.21 520.837L1453.92 520.613L1454.13 561.287L1496.89 560.951L1496.81 574.983C1501.05 574.872 1510.29 573.537 1513.95 574.939L1514.17 575.382C1515.79 578.881 1515.06 584.127 1514.99 587.946L1552.15 587.991L1551.9 623.035L1552.09 624.203C1561.98 623.027 1572.52 623.752 1582.5 623.764L1583.84 626.97L1584.18 635.439L1584.03 742.079L1584.07 770.536C1584.09 774.524 1583.48 779.777 1584.17 783.634L1584.36 784.426C1586.81 795.638 1584.91 810.973 1584.85 822.62L1584.81 897.276C1596.81 897.223 1610.55 895.954 1622.3 897.908C1627.54 896.184 1632.71 894.316 1638.19 893.534C1642.01 894.108 1646.64 895.346 1650.46 895.056L1652.81 896.255C1664.63 898.312 1678.61 896.911 1690.66 896.913L1769.49 896.89L1782.15 893.555C1785.58 894.357 1789.6 893.493 1793.07 893.086L1796.05 893.858L1796.65 895.984C1802.49 899.4 1829.3 897.219 1837.77 897.138L1838.19 900.272C1838.69 902.452 1839.29 907.144 1840.84 908.648C1841.7 909.494 1841.87 909.244 1842.98 909.247L1898.11 909.388C1899.98 906.843 1900 899.555 1900.42 896.253C1903.72 898.378 1909.1 897.417 1913.03 897.381C1920.91 897.308 1956.02 895.21 1960.56 898.625L1961 898.966L1961.53 899.358C1964.78 901.822 1967.47 904.893 1967.94 909.083C1968.49 913.886 1967.79 917.998 1964.64 921.759C1961.97 924.952 1959.21 925.868 1955.21 926.182C1934.9 927.778 1913.24 926.266 1892.82 926.248L1763.66 926.197L1361 926.347L120.708 926.393C112.689 926.407 95.9164 928.694 89.8204 923.125C86.4146 920.013 85.3736 915.984 85.2768 911.5C85.1825 907.13 86.4224 903.641 89.5834 900.582C91.123 899.092 92.8068 897.846 94.9395 897.41C100.816 896.206 108.946 897.102 115.055 897.117L162 897.297L163.582 895.27L165.907 909.074L234.976 909.494L236.499 896.24C239.208 898.461 245.074 897.639 248.499 897.627C257.612 897.597 267.767 898.384 276.778 897.416C277.471 897.341 278.002 897.103 278.635 896.837L280.988 892.004C285.312 889.375 290.175 890 295.032 890.158L344.024 862.401C348.216 859.971 352.599 856.824 357.512 856.338C356.661 851.905 356.449 847.963 357.196 843.5L371.042 842.765C378.864 848.037 389.226 853.272 396.066 859.475L414.995 870.572C416.87 873.859 416.328 879 416.408 882.752L418.48 882.981L437.865 882.896C437.542 884.86 437.098 886.862 437.024 888.85L451.5 897.717C453.593 895.656 452.706 893.614 453.422 890.953C459.535 890.961 466.009 891.44 471.983 889.99C471.066 886.916 471.352 885.876 472.054 882.85C473.641 880.814 474.204 877.516 474.933 875.033L480.075 857.239L507.23 761.973L508.22 757.853C510.287 753.203 511.328 747.439 512.699 742.511L520.204 715.18C524.219 698.847 517.405 682.957 509.196 669.257L508.531 668.13C509.584 662.68 509.12 656.656 509.129 651.104L509.135 622.5C507.068 619.797 503.65 621.521 500.592 619.5L500.125 588.212L541.035 588.334C546.796 588.335 555.125 589.442 560.425 587.136L581.431 586.964C585.63 586.945 590.398 586.509 594.44 587.849C597.567 589.884 605.302 588.824 609.173 588.808L648.235 588.639L679.11 588.936L680.174 589.275L776.407 589.897L796.211 589.895C799.095 589.889 802.608 590.307 805.325 589.4C815.718 588.146 827.321 589.209 837.854 589.154C842.091 589.131 847.301 589.636 851.264 587.995C854.146 589.451 858.147 588.837 861.366 588.819L888.224 588.523C893.753 588.592 904.715 590.167 909.587 588.357L1065.11 588.162C1068.29 587.837 1071.56 585.777 1074.86 585.276C1080.27 584.453 1088.09 586.703 1093.68 587.242C1095.09 587.942 1099 589.312 1099.53 590.656C1100.22 592.444 1099.55 595.244 1099.3 597.126C1109.24 600.975 1121.01 602.38 1131.56 604.063C1155.31 607.853 1180.61 611.373 1204.72 610.617C1206.52 610.561 1207.24 610.573 1208.04 612.5L1209.83 620.065L1217.4 657.504C1223.88 656.42 1231.14 656.86 1237.71 656.714L1277.42 655.915L1284.67 655.753L1294.5 655.246C1295.83 652.232 1293.05 643.879 1292.29 640.31L1284.92 606.378C1283.62 600.549 1281.74 594.417 1281.05 588.5C1280.25 581.619 1282.85 571.901 1283.75 564.877C1285.54 550.981 1286.53 537.078 1285.08 523.106L1329.26 523.081C1333.96 523.076 1341.01 524 1345.46 522.819C1346.46 521.016 1347.58 519.764 1349.07 518.348Z"/>
	<path fill="#163E8D" transform="scale(0.41245 0.41245)" d="M366.025 889.869C369.688 891.868 371.768 893.446 373.995 897.002C374.28 900.373 374.196 903.805 371.843 906.497C370.08 908.514 366.674 909.959 364.046 909.941C360.302 909.916 357.636 908.014 355.089 905.5C353.499 902.287 353.327 900.419 353.795 896.878C355.555 894.037 356.589 892.595 359.754 891.213C362.052 891.168 363.88 890.615 366.025 889.869Z"/>
	<path fill="#163E8D" transform="scale(0.41245 0.41245)" d="M280.988 892.004C285.312 889.375 290.175 890 295.032 890.158C295.874 892.821 297.511 894.737 299.209 896.89C299.474 897.634 299.697 898.258 299.727 899.056C299.836 901.962 298.731 904.48 296.686 906.5C294.54 908.619 291.546 909.951 288.5 909.801C285.597 909.659 282.403 908.252 280.533 905.987C278.165 903.117 278.308 900.268 278.635 896.837L280.988 892.004Z"/>
	<path fill="#C85F44" transform="scale(0.41245 0.41245)" d="M969.8 908.5L1002.91 891.869C1005.91 892.79 1009.09 892.983 1012 893.861L1013.9 908.601C1008.75 909.43 1002.57 908.865 997.302 908.891C988.195 908.935 978.862 909.391 969.8 908.5Z"/>
	<path fill="#032261" transform="scale(0.41245 0.41245)" d="M1638.19 893.534C1642.01 894.108 1646.64 895.346 1650.46 895.056L1652.81 896.255L1653.45 908.427L1607 908.233L1606.25 907.015C1610.45 902.284 1616.45 899.95 1622.3 897.908C1627.54 896.184 1632.71 894.316 1638.19 893.534Z"/>
	<path fill="#032261" transform="scale(0.41245 0.41245)" d="M1793.07 893.086L1796.05 893.858L1796.65 895.984L1798.22 908.41C1796.21 909.721 1788.71 908.956 1786.12 908.965L1746.91 909.084C1754.24 903.306 1760.86 900.263 1769.49 896.89L1782.15 893.555C1785.58 894.357 1789.6 893.493 1793.07 893.086Z"/>
	<path fill="#C85F44" transform="scale(0.41245 0.41245)" d="M1188.61 887.426C1194.28 892.62 1194.42 896.342 1194.73 903.692L1194.9 908.057L1142.61 907.876C1145.84 904.652 1151.26 902.712 1155.35 900.694C1162.16 897.55 1171.85 890.814 1179.12 889.918L1179.95 890.446C1182.92 890.248 1185.89 888.586 1188.61 887.426Z"/>
	<path fill="#032261" transform="scale(0.41245 0.41245)" d="M711.06 888.816L734.253 890.163C744.419 894.397 761.243 900.12 768.388 908.892L708.61 908.907L711.06 888.816Z"/>
	<path fill="#032261" transform="scale(0.41245 0.41245)" d="M418.48 882.981L437.865 882.896C437.542 884.86 437.098 886.862 437.024 888.85L451.5 897.717C453.593 895.656 452.706 893.614 453.422 890.953C459.535 890.961 466.009 891.44 471.983 889.99C475.692 891.341 478.625 893.365 481.832 895.635L499.864 908.766C492.28 910.425 481.986 909.228 474.123 909.235L415.369 909.242C415.489 905.235 415.631 901.305 415.071 897.319L414.951 896.496C415.343 893.889 415.531 892.227 417.574 890.329C418.411 888.21 418.296 885.261 418.48 882.981Z"/>
	<path fill="#F18549" transform="scale(0.41245 0.41245)" d="M418.48 882.981L437.865 882.896C437.542 884.86 437.098 886.862 437.024 888.85C432.574 891.602 422.895 890.399 417.574 890.329C418.411 888.21 418.296 885.261 418.48 882.981Z"/>
	<path fill="#E3EDF8" transform="scale(0.41245 0.41245)" d="M359.845 855.471L365.05 855.524L366.185 857.935L366.025 889.869C363.88 890.615 362.052 891.168 359.754 891.213C356.589 892.595 355.555 894.037 353.795 896.878C348.737 898.3 341.593 897.426 336.291 897.411C323.984 897.378 311.485 897.753 299.209 896.89C297.511 894.737 295.874 892.821 295.032 890.158L344.024 862.401C348.216 859.971 352.599 856.824 357.512 856.338L359.845 855.471Z"/>
	<path fill="#032261" transform="scale(0.41245 0.41245)" d="M359.845 855.471L365.05 855.524L366.185 857.935L366.025 889.869C363.88 890.615 362.052 891.168 359.754 891.213L359.845 855.471Z"/>
	<path fill="#E3EDF8" transform="scale(0.41245 0.41245)" d="M371.042 842.765C378.864 848.037 389.226 853.272 396.066 859.475L414.995 870.572C416.87 873.859 416.328 879 416.408 882.752L418.48 882.981C418.296 885.261 418.411 888.21 417.574 890.329C415.531 892.227 415.343 893.889 414.951 896.496C406.169 898.146 395.905 897.282 386.942 897.367C383.352 897.402 377.358 898.124 373.995 897.002C371.768 893.446 369.688 891.868 366.025 889.869L366.185 857.935L365.05 855.524L359.845 855.471L357.512 856.338C356.661 851.905 356.449 847.963 357.196 843.5L371.042 842.765Z"/>
	<path fill="#032261" transform="scale(0.41245 0.41245)" d="M371.042 842.765C378.864 848.037 389.226 853.272 396.066 859.475L414.995 870.572C416.87 873.859 416.328 879 416.408 882.752L388.748 865.729C382.782 862.489 374.124 855.806 367.5 855.265L366.185 857.935L365.05 855.524L359.845 855.471L357.512 856.338C356.661 851.905 356.449 847.963 357.196 843.5L371.042 842.765Z"/>
	<defs>
		<linearGradient id="gradient_0" gradientUnits="userSpaceOnUse" x1="379.09567" y1="853.5921" x2="357.30569" y2="845.99011">
			<stop offset="0" stop-color="#2E5DBB"/>
			<stop offset="1" stop-color="#4476CB"/>
		</linearGradient>
	</defs>
	<path fill="url(#gradient_0)" transform="scale(0.41245 0.41245)" d="M371.042 842.765C378.864 848.037 389.226 853.272 396.066 859.475C389.291 858.171 382.973 853.828 376.5 854.069L376.138 854.963C380.381 858.371 385.274 861.517 388.748 865.729C382.782 862.489 374.124 855.806 367.5 855.265L366.185 857.935L365.05 855.524L359.845 855.471L357.512 856.338C356.661 851.905 356.449 847.963 357.196 843.5L371.042 842.765Z"/>
	<path fill="#E3EDF8" transform="scale(0.41245 0.41245)" d="M507.23 761.973C508.561 770.482 508.021 779.348 508 787.938L507.87 828.934C507.817 850.884 509.145 873.426 507.885 895.263C499.261 895.063 490.393 894.452 481.832 895.635C478.625 893.365 475.692 891.341 471.983 889.99C471.066 886.916 471.352 885.876 472.054 882.85C473.641 880.814 474.204 877.516 474.933 875.033L480.075 857.239L507.23 761.973Z"/>
	<path fill="#79ACE6" transform="scale(0.41245 0.41245)" d="M1184.76 876.527L1226.63 852.023L1230.91 852.065C1235.01 854.349 1243.46 853.588 1248.06 852.899C1255.91 855.693 1263.07 860.942 1270.33 865.007C1277.49 869.012 1312.77 886.497 1315.73 893.113C1317.05 896.065 1316.93 899.15 1315.5 902.038C1314.06 904.956 1310.78 906.121 1307.92 907.128L1306.88 907.321L1241.39 907.784L1235.66 907.906L1194.9 908.057L1194.73 903.692C1194.42 896.342 1194.28 892.62 1188.61 887.426L1186.9 883.529L1184.76 876.527Z"/>
	<path fill="#032261" transform="scale(0.41245 0.41245)" d="M1184.76 876.527L1226.63 852.023L1230.91 852.065C1235.01 854.349 1243.46 853.588 1248.06 852.899C1255.91 855.693 1263.07 860.942 1270.33 865.007C1277.49 869.012 1312.77 886.497 1315.73 893.113C1317.05 896.065 1316.93 899.15 1315.5 902.038C1314.06 904.956 1310.78 906.121 1307.92 907.128L1306.88 907.321L1305.94 906.941C1302.51 905.435 1300.54 903.421 1299.11 900C1299.19 894.803 1299.13 894.578 1302.5 890.66C1296.97 886.962 1248.03 859.936 1244.21 859.821C1241.93 859.752 1241.48 860.001 1239.86 861.5L1240.12 891.841C1243.51 893.031 1244.51 893.787 1246.87 896.5C1246.87 900.451 1247.26 902.463 1244.38 905.5C1243.54 906.389 1242.4 907.112 1241.39 907.784L1235.66 907.906C1234.28 906.756 1232.55 905.428 1231.69 903.822C1230.55 901.683 1230.14 899.359 1230.85 897C1231.66 894.333 1233.39 893.498 1235.71 892.376L1235.82 868.645C1235.84 865.61 1236.42 862.905 1234.79 860.308C1225.43 859.347 1217.05 866.286 1209.21 870.805L1186.9 883.529L1184.76 876.527Z"/>
	<path fill="#79ACE6" transform="scale(0.41245 0.41245)" d="M1186.9 883.529L1209.21 870.805C1217.05 866.286 1225.43 859.347 1234.79 860.308C1236.42 862.905 1235.84 865.61 1235.82 868.645L1235.71 892.376C1233.39 893.498 1231.66 894.333 1230.85 897C1230.14 899.359 1230.55 901.683 1231.69 903.822C1232.55 905.428 1234.28 906.756 1235.66 907.906L1194.9 908.057L1194.73 903.692C1194.42 896.342 1194.28 892.62 1188.61 887.426L1186.9 883.529Z"/>
	<path fill="#79ACE6" transform="scale(0.41245 0.41245)" d="M1103.01 742.238C1109.88 755.09 1163.95 865.885 1167.5 867.682L1170.31 866.593L1181.51 862.562L1184.76 876.527L1186.9 883.529L1188.61 887.426C1185.89 888.586 1182.92 890.248 1179.95 890.446L1179.12 889.918C1171.85 890.814 1162.16 897.55 1155.35 900.694C1151.26 902.712 1145.84 904.652 1142.61 907.876C1132.49 909.596 1119.12 908.086 1108.66 908.099L1013.9 908.601L1012 893.861C1009.09 892.983 1005.91 892.79 1002.91 891.869C1004.73 885.291 1008.05 879.255 1009.24 872.489C1014.04 873.77 1018.73 875.117 1023.71 875.471L1023.92 875.675L1026.09 875.5L1103.01 742.238Z"/>
	<path fill="#7A343F" transform="scale(0.41245 0.41245)" d="M1009.24 872.489C1014.04 873.77 1018.73 875.117 1023.71 875.471C1018.96 881.047 1016.36 887.984 1012 893.861C1009.09 892.983 1005.91 892.79 1002.91 891.869C1004.73 885.291 1008.05 879.255 1009.24 872.489Z"/>
	<path fill="#032261" transform="scale(0.41245 0.41245)" d="M1155.35 900.694C1153.6 898.094 1152.85 896.74 1153.01 893.5C1157.42 887.879 1168.44 883.647 1174.76 879.747L1179.12 889.918C1171.85 890.814 1162.16 897.55 1155.35 900.694Z"/>
	<defs>
		<linearGradient id="gradient_1" gradientUnits="userSpaceOnUse" x1="1178.3962" y1="865.01447" x2="1178.604" y2="888.02167">
			<stop offset="0" stop-color="#FDD9D0"/>
			<stop offset="1" stop-color="#EFE4E2"/>
		</linearGradient>
	</defs>
	<path fill="url(#gradient_1)" transform="scale(0.41245 0.41245)" d="M1170.31 866.593L1181.51 862.562L1184.76 876.527L1186.9 883.529L1188.61 887.426C1185.89 888.586 1182.92 890.248 1179.95 890.446L1179.12 889.918L1174.76 879.747L1170.31 866.593Z"/>
	<path fill="#4977C7" transform="scale(0.41245 0.41245)" d="M560.425 587.136L581.431 586.964C585.63 586.945 590.398 586.509 594.44 587.849C597.567 589.884 605.302 588.824 609.173 588.808L648.235 588.639L679.11 588.936L680.174 589.275L672.019 618.435L684.803 618.476L683.094 638.64C681.216 658.689 680.487 675.551 694.079 692.046C700.106 699.361 708.032 705.519 716.576 709.614C718.901 710.728 730.978 713.959 731.744 715.195C732.031 715.659 731.889 717.845 731.829 718.5L730.943 723.963L711.06 888.816L708.61 908.907L620.781 908.768L508.776 908.902L508.751 808.684C508.758 792.826 510.75 774.439 508.379 758.837L508.22 757.853C510.287 753.203 511.328 747.439 512.699 742.511L520.204 715.18C524.219 698.847 517.405 682.957 509.196 669.257L508.531 668.13C509.584 662.68 509.12 656.656 509.129 651.104L509.135 622.5C507.068 619.797 503.65 621.521 500.592 619.5L500.125 588.212L541.035 588.334C546.796 588.335 555.125 589.442 560.425 587.136Z"/>
	<path fill="#5F95DC" transform="scale(0.41245 0.41245)" d="M509.196 669.257C511.118 666.111 509.935 658.995 509.897 655.161L510.151 620.628L547.98 620.92L548.196 907.97L621.136 908.052L620.781 908.768L508.776 908.902L508.751 808.684C508.758 792.826 510.75 774.439 508.379 758.837L508.22 757.853C510.287 753.203 511.328 747.439 512.699 742.511L520.204 715.18C524.219 698.847 517.405 682.957 509.196 669.257Z"/>
	<path fill="#79ACE6" transform="scale(0.41245 0.41245)" d="M560.425 587.136L581.431 586.964C585.63 586.945 590.398 586.509 594.44 587.849C597.567 589.884 605.302 588.824 609.173 588.808L648.235 588.639L679.11 588.936L680.174 589.275L672.019 618.435L684.803 618.476L683.094 638.64C681.216 658.689 680.487 675.551 694.079 692.046C700.106 699.361 708.032 705.519 716.576 709.614C718.901 710.728 730.978 713.959 731.744 715.195C732.031 715.659 731.889 717.845 731.829 718.5L730.943 723.963L711.06 888.816L708.61 908.907L620.781 908.768L621.136 908.052C622.555 903.157 621.315 894.343 621.281 889.102L621.217 842.189L621.527 620.97L547.98 620.92L510.151 620.628L509.897 655.161C509.935 658.995 511.118 666.111 509.196 669.257L508.531 668.13C509.584 662.68 509.12 656.656 509.129 651.104L509.135 622.5C507.068 619.797 503.65 621.521 500.592 619.5L500.125 588.212L541.035 588.334C546.796 588.335 555.125 589.442 560.425 587.136Z"/>
	<path fill="#F18549" transform="scale(0.41245 0.41245)" d="M648.235 588.639L679.11 588.936L680.174 589.275L672.019 618.435L684.803 618.476L683.094 638.64C681.216 658.689 680.487 675.551 694.079 692.046C700.106 699.361 708.032 705.519 716.576 709.614C718.901 710.728 730.978 713.959 731.744 715.195C732.031 715.659 731.889 717.845 731.829 718.5L730.943 723.963L682.226 724.149C679.257 720.586 677.651 706.102 676.335 700.913L648.235 588.639Z"/>
	<path fill="#79ACE6" transform="scale(0.41245 0.41245)" d="M1065.11 588.162C1068.29 587.837 1071.56 585.777 1074.86 585.276C1080.27 584.453 1088.09 586.703 1093.68 587.242C1095.09 587.942 1099 589.312 1099.53 590.656C1100.22 592.444 1099.55 595.244 1099.3 597.126C1109.24 600.975 1121.01 602.38 1131.56 604.063C1155.31 607.853 1180.61 611.373 1204.72 610.617C1206.52 610.561 1207.24 610.573 1208.04 612.5L1209.83 620.065L1217.4 657.504C1199.12 659.258 1180.28 659.151 1161.92 659.637C1153.76 659.853 1144.76 659.412 1136.76 660.912L1144.5 661.545C1125.96 663.941 1097.29 659.403 1084.82 675.903C1081.45 680.368 1080.53 686.469 1081.39 691.913C1083.36 704.36 1090.69 716.548 1096.44 727.665C1098.78 732.186 1102.05 737.212 1103.01 742.238L1026.09 875.5L1023.92 875.675L1023.71 875.471C1018.73 875.117 1014.04 873.77 1009.24 872.489C1008.05 879.255 1004.73 885.291 1002.91 891.869L969.8 908.5C966.497 907.58 961.759 908.208 958.251 908.189L930.81 908.096L865.176 908.084C852.192 908.092 838.908 907.539 825.967 908.548L787.721 908.738C781.429 908.753 774.624 908.244 768.388 908.892C761.243 900.12 744.419 894.397 734.253 890.163L711.06 888.816L730.943 723.963L731.829 718.5C731.889 717.845 732.031 715.659 731.744 715.195C730.978 713.959 718.901 710.728 716.576 709.614C708.032 705.519 700.106 699.361 694.079 692.046C680.487 675.551 681.216 658.689 683.094 638.64L684.803 618.476L672.019 618.435L680.174 589.275L776.407 589.897L796.211 589.895C799.095 589.889 802.608 590.307 805.325 589.4C815.718 588.146 827.321 589.209 837.854 589.154C842.091 589.131 847.301 589.636 851.264 587.995C854.146 589.451 858.147 588.837 861.366 588.819L888.224 588.523C893.753 588.592 904.715 590.167 909.587 588.357L1065.11 588.162Z"/>
	<path fill="#032261" transform="scale(0.41245 0.41245)" d="M786.268 862.837C790.111 862.116 800.931 868.972 805.178 870.948L802.005 875C807.796 884.767 824.269 895.837 825.316 908.063C820.737 907.789 815.088 904.489 810.826 902.617L773.336 885.463L785.848 863.771L786.268 862.837Z"/>
	<path fill="#032261" transform="scale(0.41245 0.41245)" d="M1009.24 872.489L1009.13 871.906C1008.91 868.979 1011 864.396 1011.88 861.495L1021.77 830.054L1054.84 724.488C1059.01 711.618 1062.48 698.171 1067.31 685.564C1068.91 681.363 1071.65 677.692 1074.75 674.479C1090.69 657.988 1115.66 661.281 1136.76 660.912L1144.5 661.545C1125.96 663.941 1097.29 659.403 1084.82 675.903C1081.45 680.368 1080.53 686.469 1081.39 691.913C1083.36 704.36 1090.69 716.548 1096.44 727.665C1098.78 732.186 1102.05 737.212 1103.01 742.238L1026.09 875.5L1023.92 875.675L1023.71 875.471C1018.73 875.117 1014.04 873.77 1009.24 872.489Z"/>
	<path fill="#078695" transform="scale(0.41245 0.41245)" d="M758.359 640.088L810.567 640.492C818.373 640.658 827.132 640.042 834.772 641.459C840.898 642.595 846.604 645.529 852.599 647.237C867.492 652.035 881.448 664.736 888.429 678.656C895.578 692.912 897.141 709.294 891.991 724.473C884.926 745.295 870.233 765.676 858.926 784.54L806.77 870.452L805.178 870.948C800.931 868.972 790.111 862.116 786.268 862.837C785.968 858.428 787.958 853.667 789.173 849.468L795.492 826.452L823.539 724.055L799.482 724.249C801.755 715.834 802.906 707.462 803.595 698.788C803.004 690.628 801.331 682.502 797.977 675C790.052 657.279 776.107 646.952 758.359 640.088Z"/>
	<path fill="#DD622D" transform="scale(0.41245 0.41245)" d="M803.595 698.788C811.991 700.478 820.834 700.892 829.375 701.426L823.539 724.055L799.482 724.249C801.755 715.834 802.906 707.462 803.595 698.788Z"/>
	<path fill="#20A6A8" transform="scale(0.41245 0.41245)" d="M683.094 638.64L728.126 638.687C738.043 638.815 748.599 638.218 758.359 640.088C776.107 646.952 790.052 657.279 797.977 675C801.331 682.502 803.004 690.628 803.595 698.788C802.906 707.462 801.755 715.834 799.482 724.249C797.683 733.646 793.813 743.036 790.391 751.966L772.346 797.103L751.694 849.659C746.325 863.324 741.195 877.202 734.253 890.163L711.06 888.816L730.943 723.963L731.829 718.5C731.889 717.845 732.031 715.659 731.744 715.195C730.978 713.959 718.901 710.728 716.576 709.614C708.032 705.519 700.106 699.361 694.079 692.046C680.487 675.551 681.216 658.689 683.094 638.64Z"/>
	<path fill="#4977C7" transform="scale(0.41245 0.41245)" d="M1065.11 588.162C1068.29 587.837 1071.56 585.777 1074.86 585.276C1080.27 584.453 1088.09 586.703 1093.68 587.242C1095.09 587.942 1099 589.312 1099.53 590.656C1100.22 592.444 1099.55 595.244 1099.3 597.126C1109.24 600.975 1121.01 602.38 1131.56 604.063C1155.31 607.853 1180.61 611.373 1204.72 610.617C1206.52 610.561 1207.24 610.573 1208.04 612.5L1209.83 620.065L940.441 619.774L874.103 619.619C866.131 619.587 855.565 620.811 847.84 619.208L852.599 647.237C846.604 645.529 840.898 642.595 834.772 641.459C827.132 640.042 818.373 640.658 810.567 640.492L758.359 640.088C748.599 638.218 738.043 638.815 728.126 638.687L683.094 638.64L684.803 618.476L672.019 618.435L680.174 589.275L776.407 589.897L796.211 589.895C799.095 589.889 802.608 590.307 805.325 589.4C815.718 588.146 827.321 589.209 837.854 589.154C842.091 589.131 847.301 589.636 851.264 587.995C854.146 589.451 858.147 588.837 861.366 588.819L888.224 588.523C893.753 588.592 904.715 590.167 909.587 588.357L1065.11 588.162Z"/>
	<path fill="#7A343F" transform="scale(0.41245 0.41245)" d="M1065.11 588.162C1068.29 587.837 1071.56 585.777 1074.86 585.276C1080.27 584.453 1088.09 586.703 1093.68 587.242C1095.09 587.942 1099 589.312 1099.53 590.656C1100.22 592.444 1099.55 595.244 1099.3 597.126C1095.66 596.529 1091.72 597.198 1088.01 597.157C1082.21 597.093 1074.39 595.883 1068.86 597.263L1067 597.662C1063.79 598.055 1061.64 598.022 1059.21 596C1060.18 593.102 1063.09 590.445 1065.11 588.162Z"/>
	<path fill="#086A85" transform="scale(0.41245 0.41245)" d="M684.803 618.476L801.444 618.468C816.249 618.514 833.307 616.868 847.84 619.208L852.599 647.237C846.604 645.529 840.898 642.595 834.772 641.459C827.132 640.042 818.373 640.658 810.567 640.492L758.359 640.088C748.599 638.218 738.043 638.815 728.126 638.687L683.094 638.64L684.803 618.476Z"/>
	<path fill="#79ACE6" transform="scale(0.41245 0.41245)" d="M1349.07 518.348C1359.4 521.537 1373.34 519.906 1384.27 519.891L1435.99 519.938C1440.06 519.946 1449.81 518.874 1453.21 520.837L1453.92 520.613L1454.13 561.287L1496.89 560.951L1496.81 574.983C1501.05 574.872 1510.29 573.537 1513.95 574.939L1514.17 575.382C1515.79 578.881 1515.06 584.127 1514.99 587.946L1552.15 587.991L1551.9 623.035L1552.09 624.203C1561.98 623.027 1572.52 623.752 1582.5 623.764L1583.84 626.97L1584.18 635.439L1584.03 742.079L1584.07 770.536C1584.09 774.524 1583.48 779.777 1584.17 783.634L1583.98 874.615L1583.99 896.5C1584 899.729 1584.56 903.797 1583.87 906.906C1583.36 907.207 1582.91 907.63 1582.34 907.809C1579.15 908.82 1571.82 907.891 1568.25 907.91L1512.5 907.605L1371.9 907.853L1332.34 907.905C1324.28 907.908 1315.89 908.426 1307.92 907.128C1310.78 906.121 1314.06 904.956 1315.5 902.038C1316.93 899.15 1317.05 896.065 1315.73 893.113C1312.77 886.497 1277.49 869.012 1270.33 865.007C1263.07 860.942 1255.91 855.693 1248.06 852.899C1243.46 853.588 1235.01 854.349 1230.91 852.065L1226.63 852.023L1184.76 876.527L1181.51 862.562L1170.31 866.593L1167.5 867.682C1163.95 865.885 1109.88 755.09 1103.01 742.238C1102.05 737.212 1098.78 732.186 1096.44 727.665C1090.69 716.548 1083.36 704.36 1081.39 691.913C1080.53 686.469 1081.45 680.368 1084.82 675.903C1097.29 659.403 1125.96 663.941 1144.5 661.545L1136.76 660.912C1144.76 659.412 1153.76 659.853 1161.92 659.637C1180.28 659.151 1199.12 659.258 1217.4 657.504C1223.88 656.42 1231.14 656.86 1237.71 656.714L1277.42 655.915L1284.67 655.753L1294.5 655.246C1295.83 652.232 1293.05 643.879 1292.29 640.31L1284.92 606.378C1283.62 600.549 1281.74 594.417 1281.05 588.5C1280.25 581.619 1282.85 571.901 1283.75 564.877C1285.54 550.981 1286.53 537.078 1285.08 523.106L1329.26 523.081C1333.96 523.076 1341.01 524 1345.46 522.819C1346.46 521.016 1347.58 519.764 1349.07 518.348Z"/>
	<path fill="#3253AB" transform="scale(0.41245 0.41245)" d="M1453.21 520.837L1453.92 520.613L1454.13 561.287L1496.89 560.951L1496.81 574.983C1501.05 574.872 1510.29 573.537 1513.95 574.939L1514.04 587.525L1458.07 587.437C1450.42 587.478 1441.62 586.717 1434.11 587.815L1434.01 574.711L1453.35 574.836L1453.21 520.837Z"/>
	<path fill="#072F79" transform="scale(0.41245 0.41245)" d="M1226.19 758.089L1247.27 758.134L1247.22 829.894C1247.22 835.033 1245.71 849.007 1248.06 852.899C1243.46 853.588 1235.01 854.349 1230.91 852.065L1226.63 852.023L1226.19 758.089Z"/>
	<path fill="#B4CEE9" transform="scale(0.41245 0.41245)" d="M1230.91 852.065C1229.85 844.118 1230.37 835.739 1230.42 827.722L1243.68 827.738L1243.6 851.774L1230.91 852.065Z"/>
	<path fill="#F18549" transform="scale(0.41245 0.41245)" d="M1350.26 524.063C1356.28 524.627 1360.3 524.985 1364.32 529.825C1366.52 532.479 1367.78 535.094 1367.35 538.627L1357.08 587.886L1348.32 624.621L1319.59 758.009L1247.27 758.134L1226.19 758.089L1198.88 758.057C1197.97 755.962 1197.12 753.817 1196.89 751.524C1196.41 746.576 1196.81 742.554 1199.99 738.591C1202.1 735.96 1205.28 736.507 1208.51 736.177L1263.85 736.141L1296.07 736.156L1308.43 736.584L1314.77 708.783L1353.71 531.5C1354.01 528.345 1352.13 526.331 1350.26 524.063Z"/>
	<path fill="#FEFEFE" transform="scale(0.41245 0.41245)" d="M1349.07 518.348C1359.4 521.537 1373.34 519.906 1384.27 519.891L1435.99 519.938C1440.06 519.946 1449.81 518.874 1453.21 520.837L1453.35 574.836L1434.01 574.711L1434.11 587.815L1357.08 587.886L1367.35 538.627C1367.78 535.094 1366.52 532.479 1364.32 529.825C1360.3 524.985 1356.28 524.627 1350.26 524.063L1345.46 522.819C1346.46 521.016 1347.58 519.764 1349.07 518.348Z"/>
	<path fill="#DD622D" transform="scale(0.41245 0.41245)" d="M1345.46 522.819L1350.26 524.063C1352.13 526.331 1354.01 528.345 1353.71 531.5L1314.77 708.783L1314.41 707.33C1312.85 703.836 1313.32 699.345 1312.32 695.388C1309.91 679.589 1304.56 668.338 1294.5 656.087L1284.67 655.753L1294.5 655.246C1295.83 652.232 1293.05 643.879 1292.29 640.31L1284.92 606.378C1283.62 600.549 1281.74 594.417 1281.05 588.5C1280.25 581.619 1282.85 571.901 1283.75 564.877C1285.54 550.981 1286.53 537.078 1285.08 523.106L1329.26 523.081C1333.96 523.076 1341.01 524 1345.46 522.819Z"/>
	<path fill="#163E8D" transform="scale(0.41245 0.41245)" d="M1284.67 655.753L1294.5 656.087C1304.56 668.338 1309.91 679.589 1312.32 695.388C1313.32 699.345 1312.85 703.836 1314.41 707.33L1314.77 708.783L1308.43 736.584L1296.07 736.156L1263.85 736.141L1208.51 736.177C1205.28 736.507 1202.1 735.96 1199.99 738.591C1196.81 742.554 1196.41 746.576 1196.89 751.524C1197.12 753.817 1197.97 755.962 1198.88 758.057L1226.19 758.089L1226.63 852.023L1184.76 876.527L1181.51 862.562L1170.31 866.593L1167.5 867.682C1163.95 865.885 1109.88 755.09 1103.01 742.238C1102.05 737.212 1098.78 732.186 1096.44 727.665C1090.69 716.548 1083.36 704.36 1081.39 691.913C1080.53 686.469 1081.45 680.368 1084.82 675.903C1097.29 659.403 1125.96 663.941 1144.5 661.545L1136.76 660.912C1144.76 659.412 1153.76 659.853 1161.92 659.637C1180.28 659.151 1199.12 659.258 1217.4 657.504C1223.88 656.42 1231.14 656.86 1237.71 656.714L1277.42 655.915L1284.67 655.753Z"/>
	<path fill="#072F79" transform="scale(0.41245 0.41245)" d="M1150.19 736.072L1135.81 690.599L1171.2 736.241L1150.19 736.072Z"/>
	<path fill="#C85F44" transform="scale(0.41245 0.41245)" d="M1171.2 736.241L1208.51 736.177C1205.28 736.507 1202.1 735.96 1199.99 738.591C1196.81 742.554 1196.41 746.576 1196.89 751.524C1197.12 753.817 1197.97 755.962 1198.88 758.057L1156.34 758.148L1150.19 736.072L1171.2 736.241Z"/>
	<path fill="#032261" transform="scale(0.41245 0.41245)" d="M1284.67 655.753L1294.5 656.087C1304.56 668.338 1309.91 679.589 1312.32 695.388C1313.32 699.345 1312.85 703.836 1314.41 707.33L1314.77 708.783L1308.43 736.584L1296.07 736.156L1263.85 736.141C1270.66 732.966 1279.08 730.534 1284.55 725.335C1291.27 718.954 1293.55 709.467 1293.88 700.525C1294.45 684.97 1288 667.254 1277.42 655.915L1284.67 655.753Z"/>
	<path fill="#C85F44" transform="scale(0.41245 0.41245)" d="M1312.32 695.388C1313.32 699.345 1312.85 703.836 1314.41 707.33L1314.77 708.783L1308.43 736.584L1296.07 736.156L1301.07 731.711C1311.16 722.101 1312.03 708.428 1312.32 695.388Z"/>
	<path fill="#79ACE6" transform="scale(0.41245 0.41245)" d="M1198.88 758.057L1226.19 758.089L1226.63 852.023L1184.76 876.527L1181.51 862.562C1183.92 862.15 1184.35 862.2 1186.05 860.5L1156.34 758.148L1198.88 758.057Z"/>
	<path fill="#5F95DC" transform="scale(0.41245 0.41245)" d="M1551.9 623.035L1552.09 624.203C1561.98 623.027 1572.52 623.752 1582.5 623.764L1583.84 626.97L1584.18 635.439L1584.03 742.079L1584.07 770.536C1584.09 774.524 1583.48 779.777 1584.17 783.634L1583.98 874.615L1583.99 896.5C1584 899.729 1584.56 903.797 1583.87 906.906C1573.74 908.006 1562.19 907.025 1551.93 907.016L1426 906.896L1426.1 623.68C1437.12 622.961 1448.5 623.459 1459.57 623.435L1518.23 623.446C1528.37 623.515 1542.24 625.305 1551.9 623.035Z"/>
	<path fill="#4169C0" transform="scale(0.41245 0.41245)" d="M1552.09 624.203C1561.98 623.027 1572.52 623.752 1582.5 623.764L1583.84 626.97L1584.18 635.439L1584.03 742.079L1584.07 770.536C1584.09 774.524 1583.48 779.777 1584.17 783.634L1583.98 874.615L1583.99 896.5C1584 899.729 1584.56 903.797 1583.87 906.906C1573.74 908.006 1562.19 907.025 1551.93 907.016L1552.09 624.203Z"/>
</svg>
